<svg width="26" height="24" viewBox="0 0 26 24" fill="none" xmlns="http://www.w3.org/2000/svg">
<path fill-rule="evenodd" clip-rule="evenodd" d="M25.194 11.5748C25.194 17.3609 20.9262 22.1688 15.3733 23.0166C15.4201 22.7598 15.4333 22.4939 15.4017 22.2244L15.3252 21.5697C17.2967 21.2338 19.0766 20.3292 20.4875 19.0282C20.4028 18.9578 20.3184 18.8664 20.2353 18.7451C19.992 18.3902 20.1132 18.037 20.2282 17.702C20.2903 17.5211 20.3505 17.3455 20.3505 17.1778C20.3505 16.9169 20.0579 16.8131 19.7923 16.7188C19.5805 16.6437 19.3858 16.5746 19.3705 16.4368C19.2843 15.6612 19.6656 15.4372 20.0408 15.2168C20.186 15.1315 20.3302 15.0468 20.4462 14.9308C20.8618 14.5152 20.0354 13.5703 19.5016 13.6313C18.9641 13.6887 17.4514 13.3831 17.5896 12.2257C17.6943 11.3495 16.975 11.0659 16.348 10.8188C15.9663 10.6684 15.6188 10.5314 15.5124 10.2824C15.1023 9.32335 15.784 8.14697 16.6731 7.87972C17.9325 7.50119 19.1731 6.47379 19.0762 5.3301C18.9664 4.03479 18.3801 2.8666 17.4145 2.17265C16.4096 1.76556 15.326 1.51382 14.1924 1.4503C13.1806 1.49032 12.2911 1.71517 12.3317 2.17838C12.3791 2.71965 13.1379 3.06986 13.8601 3.4032C14.6525 3.76892 15.4008 4.11432 15.1174 4.66946C15.0138 4.87245 14.6628 5.10608 14.2795 5.36122L14.2795 5.36122C13.6182 5.80134 12.8609 6.30545 13.1114 6.82659C13.2105 7.03266 13.3653 7.09143 13.5048 7.14438C13.7277 7.22899 13.9114 7.29873 13.7659 7.93093C13.6571 8.40385 13.2424 9.29244 12.6047 9.34978C12.3496 9.3736 12.1113 9.12379 11.8093 8.80738C11.3393 8.31484 10.7153 7.66091 9.63453 7.62642C8.79539 7.59958 7.6132 8.93569 8.61701 9.88359C8.8937 10.1449 9.28078 10.0254 9.65218 9.91068C10.0967 9.77342 10.5188 9.64309 10.7022 10.181C10.7699 10.3796 10.7964 10.6405 10.8254 10.9262C10.8979 11.6417 10.9863 12.5127 11.7775 12.9492C11.9767 13.0591 12.2283 13.162 12.5056 13.2755L12.5057 13.2755L12.5057 13.2755C12.7903 13.3919 13.102 13.5194 13.4119 13.6769C12.5036 13.8624 11.3875 14.2086 10.0695 14.7162L8.95911 14.4232C9.05419 14.3441 9.16143 14.2697 9.27024 14.1943L9.27025 14.1943C9.6934 13.9009 10.1404 13.5909 9.98922 12.9183C9.84614 12.2816 9.20976 12.0943 8.4231 11.8628C7.67495 11.6426 6.79088 11.3824 6.06599 10.6575C5.60978 10.2014 4.63673 8.68675 4.64072 6.86702C3.89947 8.275 3.4776 9.87622 3.4776 11.5749C3.4776 12.0977 3.51749 12.6115 3.59418 13.1133C3.58586 13.1131 3.57759 13.1124 3.56933 13.1116H3.56931C3.5602 13.1108 3.55109 13.1099 3.54194 13.1099C3.07363 13.1099 2.61433 13.2083 2.18867 13.3944C2.09464 12.8014 2.04446 12.194 2.04446 11.5749C2.04446 5.19264 7.23694 9.79081e-10 13.6192 9.79081e-10C20.0015 -8.23324e-05 25.194 5.19256 25.194 11.5748ZM16.5115 14.9485L13.6846 16.248L13.7284 15.632L15.5598 14.8053C15.2986 14.7866 15.0279 14.7795 14.7577 14.7795C13.7459 14.7795 12.0364 15.2917 10.1456 16.0422L4.08143 14.4426C3.51473 14.2931 2.91139 14.3852 2.41504 14.697L2.11687 14.8844C1.82578 15.0672 1.82269 15.4904 2.11107 15.6776L5.75634 18.0425C4.88554 18.4878 4.05936 18.9401 3.33104 19.3721L1.46051 18.3818C1.15497 18.2201 0.793733 18.2009 0.472838 18.3294L0.29578 18.4004C0.031737 18.506 -0.0788779 18.8201 0.0606772 19.0679L1.09112 20.8987L1.09157 20.8985C0.702795 21.233 0.481236 21.5104 0.481236 21.7023C0.481236 22.2769 1.18823 22.4205 1.81141 22.4205C2.92292 22.4205 17.6016 19.0596 17.6016 16.0147C17.6015 15.4117 17.1891 15.1101 16.5115 14.9485ZM13.5527 19.7555L10.3226 20.8934C10.1653 20.9488 10.114 21.1456 10.2242 21.2708L12.4862 23.8404C12.6241 23.9969 12.8485 24.0441 13.0377 23.9561L13.3406 23.8153C13.893 23.5585 14.2184 22.9763 14.1477 22.3713L13.8645 19.9501C13.847 19.8002 13.6949 19.7054 13.5527 19.7555Z" fill="#007BFF"/>
</svg>
