<svg width="35" height="17" viewBox="0 0 35 17"   xmlns="http://www.w3.org/2000/svg">
<path  d="M0.398621 9.3834C0.399029 9.38381 0.399364 9.38428 0.399841 9.38469L7.49758 16.4482C8.02932 16.9774 8.88937 16.9754 9.41866 16.4436C9.94788 15.9118 9.94584 15.0518 9.4141 14.5226L4.64868 9.78024L33.416 9.78024C34.1663 9.78024 34.7744 9.1721 34.7744 8.42188C34.7744 7.67165 34.1663 7.06351 33.416 7.06351L4.64875 7.06351L9.41404 2.32118C9.94577 1.79196 9.94781 0.931908 9.41859 0.400175C8.8893 -0.131693 8.02918 -0.133526 7.49752 0.395557L0.399776 7.45907C0.399368 7.45947 0.399029 7.45995 0.398552 7.46036C-0.133453 7.99134 -0.131752 8.85418 0.398621 9.3834Z" fill="black"/>
</svg>
