<svg width="24" height="28" viewBox="0 0 24 28" fill="none" xmlns="http://www.w3.org/2000/svg">
<path d="M13.5168 18.6C13.4122 18.4855 13.2799 18.3999 13.1432 18.3285C12.8456 18.1733 12.52 18.0791 12.1968 17.9941V20.4988C12.7214 20.4395 13.3237 20.2491 13.5992 19.7593C13.7307 19.5254 13.7569 19.2379 13.7033 18.9775C13.6743 18.8364 13.6142 18.7068 13.5168 18.6Z" fill="#579CE7"/>
<path d="M13.5967 19.7636C13.5977 19.7618 13.5983 19.7607 13.5994 19.7588C13.5985 19.7604 13.5976 19.762 13.5967 19.7636Z" fill="#579CE7"/>
<path d="M9.73608 14.5956C9.64589 14.7274 9.58929 14.877 9.57368 15.036C9.55806 15.1954 9.56682 15.3727 9.62737 15.5227C9.68502 15.6657 9.80579 15.7712 9.93045 15.8562C10.0703 15.9514 10.2242 16.0257 10.3808 16.0887C10.5123 16.1416 10.6601 16.1922 10.8195 16.2411V13.9746C10.4169 14.0605 9.97696 14.2439 9.73608 14.5956Z" fill="#579CE7"/>
<path d="M13.6095 19.7402C13.6062 19.7461 13.6026 19.7522 13.5991 19.7587C13.6032 19.7512 13.6064 19.7456 13.6095 19.7402Z" fill="#579CE7"/>
<path d="M13.623 19.7171C13.6239 19.7155 13.624 19.7153 13.623 19.7171V19.7171Z" fill="#579CE7"/>
<path d="M13.0792 6.09235C15.2093 4.30303 16.6325 0.271963 15.7566 0.0956537C14.5928 -0.138701 12.0656 0.888914 10.8441 1.06997C9.11155 1.27915 7.22459 -0.808756 6.16542 0.355045C5.30423 1.30129 6.78283 4.74249 9.09613 6.24165C2.1945 9.63369 -7.50621 26.662 9.41719 27.8976C32.8336 29.6073 21.1082 9.39782 13.0792 6.09235ZM15.0903 19.5217C15.0182 20.1856 14.6664 20.7859 14.1405 21.1935C13.5852 21.6239 12.8888 21.824 12.1968 21.8801V22.6136C12.1968 22.8099 12.1111 22.9997 11.9641 23.1296C11.7622 23.3083 11.4654 23.3524 11.2203 23.2394C10.9783 23.1281 10.8194 22.8799 10.8194 22.6136V21.8119C10.7007 21.7894 10.5829 21.7625 10.4665 21.7306C9.81975 21.5529 9.21987 21.2065 8.78166 20.6941C8.56338 20.4386 8.38543 20.1488 8.26235 19.8359C8.2302 19.7542 8.20154 19.6709 8.17644 19.5867C8.15371 19.5104 8.13025 19.433 8.12215 19.3535C8.10851 19.2202 8.13493 19.0842 8.19706 18.9655C8.32475 18.7213 8.59382 18.5738 8.86857 18.5983C9.13896 18.6222 9.37595 18.8099 9.46107 19.0676C9.4873 19.147 9.50508 19.2284 9.53454 19.3069C9.56372 19.3849 9.59897 19.4608 9.64041 19.533C9.72224 19.6752 9.82476 19.8063 9.94283 19.9201C10.1862 20.1545 10.4962 20.3069 10.8194 20.3976V17.6724C10.1875 17.5088 9.5352 17.2976 9.01338 16.8918C8.75979 16.6946 8.54461 16.4495 8.40368 16.1594C8.25497 15.8532 8.19337 15.5121 8.19087 15.1733C8.1883 14.8294 8.25366 14.4884 8.39715 14.175C8.53156 13.8815 8.72507 13.618 8.96232 13.3996C9.46964 12.9327 10.1435 12.6723 10.8194 12.5766V12.5166V11.8152C10.8194 11.619 10.9052 11.4291 11.0521 11.2991C11.2541 11.1205 11.5507 11.0764 11.7959 11.1893C12.0378 11.3007 12.1968 11.5489 12.1968 11.8152V12.5166V12.5724C12.2869 12.5838 12.3767 12.5974 12.466 12.6136C13.1298 12.7337 13.7789 13.0078 14.2643 13.4863C14.4943 13.7129 14.6825 13.983 14.8149 14.2775C14.8518 14.3597 14.8842 14.4437 14.9122 14.5294C14.9383 14.6094 14.9645 14.6917 14.9769 14.7751C14.9968 14.9082 14.9765 15.0458 14.9196 15.1676C14.8028 15.4172 14.541 15.5761 14.2655 15.5643C13.9948 15.5525 13.7496 15.3763 13.6527 15.1233C13.6238 15.048 13.6094 14.9684 13.58 14.8933C13.5503 14.8174 13.5118 14.7449 13.4674 14.6764C13.3813 14.5433 13.2696 14.4292 13.1421 14.3352C12.866 14.1314 12.5312 14.0252 12.1966 13.9658V16.5737C12.5943 16.6689 12.9922 16.7727 13.3732 16.9229C13.9489 17.15 14.4945 17.4981 14.8088 18.0471C14.76 17.9615 14.7126 17.8782 14.8104 18.0499C14.9065 18.2186 14.8607 18.1382 14.8124 18.0537C15.0625 18.4943 15.1446 19.0212 15.0903 19.5217Z" fill="#579CE7"/>
<path d="M13.5894 19.7764C13.5854 19.7835 13.5819 19.7899 13.5791 19.7947C13.5815 19.7905 13.585 19.7843 13.5894 19.7764Z" fill="#579CE7"/>
</svg>
