<svg width="26" height="26" viewBox="0 0 26 26" fill="none" xmlns="http://www.w3.org/2000/svg">
<g clip-path="url(#clip0_1_15439)">
<path d="M25.9094 13.4687L23.0844 7.81653C22.772 7.19162 21.8802 7.19162 21.5678 7.81653L18.7428 13.4687C18.4609 14.0325 18.8709 14.6957 19.5012 14.6957H19.7827V16.3913H16.9566V11.3044H17.8456C18.4759 11.3044 18.8858 10.6411 18.604 10.0774L13.7584 0.468686C13.4459 -0.156229 12.5542 -0.156229 12.2417 0.468686L7.3962 10.0774C7.11427 10.6411 7.52422 11.3043 8.15452 11.3043H9.04355V16.3913H6.21747V14.6957H6.49895C7.12925 14.6957 7.5391 14.0324 7.25732 13.4687L4.4322 7.81653C4.1198 7.19162 3.22803 7.19162 2.91562 7.81653L0.0906102 13.4687C-0.191277 14.0325 0.218681 14.6957 0.848977 14.6957H1.13046V25.1522C1.13046 25.6204 1.51005 26 1.9783 26H5.08698H6.21742H9.0435V23.2236C9.0435 21.042 10.7884 19.2337 12.97 19.2175C15.1689 19.2012 16.9565 20.9788 16.9565 23.1739V26H19.7826H24.0217C24.4899 26 24.8696 25.6204 24.8696 25.1522V14.6957H25.1511C25.7814 14.6957 26.1913 14.0325 25.9094 13.4687Z" fill="white"/>
</g>
<defs>
<clipPath id="clip0_1_15439">
<rect width="26" height="26" fill="white"/>
</clipPath>
</defs>
</svg>
