<svg width="30" height="30" viewBox="0 0 30 30" fill="none" xmlns="http://www.w3.org/2000/svg">
<g clip-path="url(#clip0_1_35543)">
<path d="M29.8955 15.5408L26.6359 9.01907C26.2754 8.29802 25.2464 8.29802 24.886 9.01907L21.6263 15.5408C21.3011 16.1913 21.7741 16.9565 22.5014 16.9565H22.8262V18.913H19.5653V13.0435H20.5911C21.3184 13.0435 21.7913 12.2782 21.4661 11.6278L15.8751 0.540791C15.5145 -0.180264 14.4856 -0.180264 14.1251 0.540791L8.53408 11.6277C8.20877 12.2782 8.6818 13.0435 9.40906 13.0435H10.4349V18.913H7.174V16.9565H7.49879C8.22605 16.9565 8.69896 16.1912 8.37383 15.5408L5.11408 9.01907C4.75361 8.29802 3.72465 8.29802 3.36418 9.01907L0.10455 15.5408C-0.220704 16.1913 0.252324 16.9565 0.979589 16.9565H1.30437V29.0217C1.30437 29.562 1.74236 30 2.28266 30H5.86959H7.17394H10.4348V26.7965C10.4348 24.2792 12.4482 22.1928 14.9654 22.1741C17.5026 22.1552 19.5652 24.2063 19.5652 26.7392V30H22.8261H27.7174C28.2576 30 28.6957 29.562 28.6957 29.0217V16.9565H29.0205C29.7478 16.9565 30.2207 16.1913 29.8955 15.5408Z" fill="#6CBF3D"/>
</g>
<defs>
<clipPath id="clip0_1_35543">
<rect width="30" height="30" fill="white"/>
</clipPath>
</defs>
</svg>
