<svg width="25" height="24" viewBox="0 0 25 24" fill="none" xmlns="http://www.w3.org/2000/svg">
<path opacity="0.4" d="M19.4949 22.7314C19.7006 22.7314 19.9037 22.8097 20.0581 22.9589C21.0455 23.9123 22.4858 24.2298 23.7662 23.8324C22.9422 22.1158 22.828 20.1491 23.4665 18.3281C24.259 16.0625 24.4576 13.7917 23.5557 11.5142C22.7634 9.51344 21.2343 7.8512 19.2992 6.90332C19.4182 7.53801 19.4782 8.1847 19.4782 8.83823C19.4783 11.6122 18.4116 14.2212 16.4748 16.1847C14.5378 18.1484 11.9413 19.2525 9.1637 19.2938C8.64764 19.3019 8.1339 19.2716 7.62598 19.2046C9.15253 21.8804 12.0316 23.6232 15.1953 23.6701C16.5793 23.6915 17.9081 23.4015 19.1457 22.8105C19.2571 22.7573 19.3765 22.7314 19.4949 22.7314Z" fill="black"/>
<path opacity="0.4" fill-rule="evenodd" clip-rule="evenodd" d="M0.151394 8.81658C0.163275 3.89017 4.25937 -0.096078 9.18685 0.00176341C13.9682 0.0978821 17.8583 4.06192 17.8582 8.83832C17.8583 13.7213 14.0287 17.6032 9.13974 17.6758C7.75582 17.698 6.42679 17.4071 5.18943 16.8162C4.8842 16.6703 4.52022 16.7294 4.27695 16.9645C3.28951 17.918 1.84939 18.2353 0.568898 17.8381C1.39298 16.1214 1.50709 14.1547 0.868541 12.3338C0.862838 12.3174 0.856541 12.3012 0.849769 12.2852C0.383433 11.1872 0.148483 10.0202 0.151394 8.81658ZM3.00044 8.8786C3.00044 9.58535 3.57436 10.1583 4.2823 10.1583C4.99024 10.1583 5.5641 9.58535 5.56416 8.8786C5.56416 8.17185 4.99024 7.59888 4.2823 7.59888C3.57436 7.59888 3.00044 8.17185 3.00044 8.8786ZM9.00483 10.1583C8.29689 10.1583 7.72297 9.58535 7.72297 8.8786C7.72297 8.17185 8.29689 7.59888 9.00483 7.59888C9.71276 7.59888 10.2867 8.17185 10.2867 8.8786C10.2867 9.58535 9.71276 10.1583 9.00483 10.1583ZM12.4456 8.8786C12.4456 9.58535 13.0195 10.1583 13.7274 10.1583C14.4354 10.1583 15.0093 9.58535 15.0093 8.8786C15.0093 8.17185 14.4354 7.59888 13.7274 7.59888C13.0195 7.59888 12.4456 8.17185 12.4456 8.8786Z" fill="black"/>
</svg>
