<svg width="35" height="25" viewBox="0 0 35 25" fill="none" xmlns="http://www.w3.org/2000/svg">
<path d="M34.9209 13.1066L5.63284 19.9112L0.0136719 11.8498L29.3018 5.04492L34.9209 13.1066Z" fill="#47A047"/>
<path d="M31.673 12.4298L20.615 15.0011C22.0134 14.2472 22.4323 12.8552 21.5172 11.5406C21.1692 11.0444 20.6731 10.6127 20.0866 10.271C19.1136 9.71058 17.9021 9.39468 16.71 9.40757L27.7743 6.83657C28.2641 6.72047 28.8119 6.79787 29.1663 6.99767C29.2823 7.06847 29.3789 7.15217 29.4498 7.24876L32.3883 11.4569C32.6525 11.8436 32.3367 12.2753 31.673 12.4298Z" fill="#96D696"/>
<path d="M28.2475 7.48693C28.3177 7.52746 28.3755 7.57648 28.4156 7.63281C28.5726 7.8609 28.3855 8.11741 27.9923 8.20769C27.7024 8.27669 27.3799 8.23226 27.1711 8.11171C27.0997 8.07052 27.0416 8.0205 27.0026 7.96306C26.8416 7.73727 27.0327 7.47844 27.4178 7.38812C27.7129 7.32034 28.0364 7.36503 28.2475 7.48693Z" fill="#47A047"/>
<path fill-rule="evenodd" clip-rule="evenodd" d="M29.1126 13.0893C29.3502 13.0137 29.4974 12.894 29.55 12.7333C29.6026 12.5664 29.573 12.3806 29.4615 12.1695C29.3833 12.0174 29.2871 11.8977 29.1717 11.8093C29.1222 11.7714 29.0693 11.7392 29.0126 11.7127C28.8276 11.6215 28.6144 11.615 28.3769 11.6907C28.1351 11.7632 27.9922 11.8796 27.9353 12.0436C27.887 12.2072 27.9123 12.3963 28.028 12.6105C28.1078 12.7612 28.2062 12.8815 28.3233 12.9712C28.3701 13.007 28.42 13.038 28.4728 13.0642C28.6578 13.1554 28.8711 13.1617 29.1126 13.0893ZM29.2586 12.6545C29.2426 12.768 29.1568 12.8468 29.0095 12.8907C28.862 12.9413 28.7266 12.9255 28.6115 12.8562C28.5915 12.8439 28.5719 12.8306 28.553 12.8162C28.4595 12.7446 28.3802 12.6454 28.3148 12.5223C28.2363 12.3679 28.207 12.2388 28.227 12.1223C28.2511 12.0089 28.3327 11.927 28.4802 11.8828C28.6277 11.8387 28.759 11.8513 28.8741 11.9207C28.8939 11.9328 28.9133 11.9459 28.932 11.9603C29.0256 12.0319 29.1047 12.1316 29.1666 12.2577C29.2493 12.4089 29.2827 12.5412 29.2586 12.6545Z" fill="#414A61"/>
<path d="M27.2837 11.9609L27.9906 12.98L27.7079 13.0442L27.1085 12.1771L26.7521 12.2603L26.6445 12.1083L27.2837 11.9609Z" fill="#414A61"/>
<path d="M10.6702 13.3299C10.9469 13.4897 11.1738 13.6836 11.3296 13.9064C11.9456 14.7877 11.2131 15.7901 9.68939 16.1418C8.5549 16.406 7.30121 16.2346 6.48417 15.7628C6.20702 15.6028 5.98004 15.4083 5.82507 15.1845C5.2091 14.3032 5.94572 13.3032 7.4653 12.9491C8.60043 12.6848 9.85263 12.8579 10.6702 13.3299Z" fill="#47A047"/>
<path d="M24.0754 8.45221C24.1469 8.49353 24.2056 8.54386 24.2457 8.60191C24.4027 8.83 24.2155 9.08651 23.8223 9.17679C23.5325 9.24579 23.2099 9.20136 23.0011 9.08082C22.9297 9.03963 22.8716 8.98961 22.8326 8.93216C22.6716 8.70637 22.8627 8.44755 23.2518 8.3549C23.545 8.28755 23.8658 8.33122 24.0754 8.45221Z" fill="#47A047"/>
<path d="M26.1602 7.96939C26.2321 8.01092 26.291 8.06139 26.3311 8.11943C26.4923 8.34509 26.3009 8.60405 25.9078 8.69433C25.616 8.7602 25.2935 8.71527 25.0825 8.59345C25.0122 8.55286 24.9542 8.50373 24.9139 8.44731C24.7569 8.21921 24.944 7.9627 25.3372 7.87242C25.6271 7.80344 25.9497 7.84785 26.1602 7.96939Z" fill="#47A047"/>
<path fill-rule="evenodd" clip-rule="evenodd" d="M30.8453 12.688C31.0829 12.6124 31.23 12.4927 31.2827 12.3321C31.3352 12.1652 31.3057 11.9795 31.19 11.7653C31.1145 11.6148 31.0167 11.4971 30.9012 11.4087C30.8523 11.3712 30.8003 11.3389 30.7452 11.3118C30.5602 11.2206 30.3469 11.2143 30.1054 11.2866C29.8678 11.3622 29.7247 11.4788 29.668 11.6425C29.6194 11.8063 29.645 11.9952 29.7565 12.2062C29.8393 12.3591 29.9385 12.4799 30.0559 12.5698C30.1028 12.6057 30.1526 12.6367 30.2054 12.6628C30.3905 12.7541 30.6038 12.7603 30.8453 12.688ZM30.9911 12.2533C30.975 12.3667 30.8892 12.4455 30.742 12.4894C30.5903 12.5368 30.459 12.5242 30.3398 12.4517C30.3205 12.44 30.3015 12.4272 30.2831 12.413C30.1919 12.3432 30.112 12.2436 30.0431 12.118C29.9645 11.97 29.9353 11.8345 29.9594 11.7212C29.9754 11.6077 30.0652 11.5259 30.2127 11.4818C30.3561 11.4346 30.4914 11.4503 30.6065 11.5196C30.6263 11.5317 30.6456 11.5448 30.6642 11.559C30.7569 11.63 30.8337 11.7279 30.899 11.8566C30.9817 12.0078 31.0112 12.143 30.9911 12.2533Z" fill="#414A61"/>
<path fill-rule="evenodd" clip-rule="evenodd" d="M18.2241 15.5557C17.0324 15.5664 15.8144 15.2475 14.8432 14.6868C14.2549 14.3472 13.7571 13.919 13.4104 13.4218C12.4945 12.1064 12.9219 10.7123 14.3222 9.95898L3.25951 12.5288C2.60035 12.6831 2.28269 13.1156 2.54738 13.5004L5.48282 17.7095C5.55068 17.806 5.64927 17.8902 5.76936 17.9595C6.1251 18.1649 6.66935 18.2407 7.16229 18.1253L18.2241 15.5557ZM11.3296 13.9064C11.9456 14.7877 11.2131 15.7901 9.68939 16.1418C8.5549 16.406 7.30121 16.2346 6.48416 15.7628C6.20702 15.6028 5.98004 15.4083 5.82507 15.1845C5.20909 14.3032 5.94573 13.3032 7.46531 12.9491C8.60043 12.6848 9.85263 12.8579 10.6702 13.3299C10.9469 13.4897 11.1738 13.6836 11.3296 13.9064Z" fill="#96D696"/>
<path d="M34.9212 13.1084L34.9093 17.3107L5.62207 24.1163L5.63398 19.914L34.9212 13.1084Z" fill="#47A047"/>
<path d="M34.9139 15.9326L5.62682 22.6844L5.62598 22.986L34.9131 16.2346L34.9139 15.9326Z" fill="#5FAF5F"/>
<path d="M34.9149 15.4004L5.6278 22.1518L5.62695 22.4538L34.9141 15.7023L34.9149 15.4004Z" fill="#5FAF5F"/>
<path d="M34.9217 13.2754L5.63463 20.0268L5.63379 20.3284L34.9209 13.577L34.9217 13.2754Z" fill="#5FAF5F"/>
<path d="M34.9188 14.3379L5.6317 21.0893L5.63086 21.3913L34.918 14.6398L34.9188 14.3379Z" fill="#5FAF5F"/>
<path d="M34.9178 14.8691L5.63073 21.6206L5.62988 21.9225L34.917 15.1711L34.9178 14.8691Z" fill="#5FAF5F"/>
<path d="M34.911 16.9951L5.62393 23.7469L5.62305 24.0485L34.9102 17.2971L34.911 16.9951Z" fill="#5FAF5F"/>
<path d="M34.9208 13.8066L5.63366 20.5577L5.63281 20.8597L34.9199 14.1082L34.9208 13.8066Z" fill="#5FAF5F"/>
<path d="M34.912 16.4639L5.62487 23.2153L5.62402 23.5169L34.9111 16.7655L34.912 16.4639Z" fill="#5FAF5F"/>
<path d="M16.5285 17.3826L16.5166 21.5847L20.7183 20.6084L20.7302 16.4062L16.5285 17.3826Z" fill="#ED5D71"/>
<path d="M17.0627 17.2586L17.0508 21.4607L21.2525 20.4844L21.2644 16.2822L17.0627 17.2586Z" fill="#E3E7F0"/>
<path d="M5.63464 19.9136L5.62273 24.116L0 16.0539L0.0119137 11.8516L5.63464 19.9136Z" fill="#5FAF5F"/>
<path d="M32.1675 12.1309L32.155 16.5634L22.248 22.3207L22.2606 17.8881L32.1675 12.1309Z" fill="#47A047"/>
<path d="M22.2617 17.889L22.2491 22.3216L1.2373 10.1904L1.24987 5.75781L22.2617 17.889Z" fill="#47A047"/>
<path d="M1.24219 8.138L22.2541 20.263L22.2547 20.0362L1.24282 7.91113L1.24219 8.138Z" fill="#77CB77"/>
<path d="M1.24414 7.6126L22.256 19.7376L22.2567 19.5111L1.24481 7.38574L1.24414 7.6126Z" fill="#77CB77"/>
<path d="M22.2617 17.8882L1.24981 5.75684L1.24902 6.03876L22.2609 18.1638L22.2617 17.8882Z" fill="#77CB77"/>
<path d="M1.2373 10.1894L22.2491 22.3204L22.2496 22.1348L1.23782 10.0098L1.2373 10.1894Z" fill="#77CB77"/>
<path d="M1.24023 9.18749L22.2521 21.3125L22.2527 21.086L1.24086 8.96094L1.24023 9.18749Z" fill="#77CB77"/>
<path d="M1.23828 9.7119L22.2502 21.8372L22.2508 21.6104L1.23895 9.48535L1.23828 9.7119Z" fill="#77CB77"/>
<path d="M1.24121 8.66209L22.2531 20.7874L22.2537 20.5606L1.24184 8.43555L1.24121 8.66209Z" fill="#77CB77"/>
<path d="M22.2606 18.4619L1.24868 6.33691L1.24805 6.56378L22.2599 18.6885L22.2606 18.4619Z" fill="#77CB77"/>
<path d="M1.24676 6.86133L1.24609 7.08788L22.258 19.2129L22.2586 18.9864L1.24676 6.86133Z" fill="#77CB77"/>
<path d="M14.2257 13.2489L14.2131 17.6815L10.4785 15.5253L10.4911 11.0928L14.2257 13.2489Z" fill="#D3DBEA"/>
<path d="M10.096 10.8643L10.0834 15.2968L10.4792 15.5255L10.4918 11.0929L10.096 10.8643Z" fill="#E34454"/>
<path d="M14.2268 13.249L14.2143 17.6816L14.6101 17.9102L14.6227 13.4777L14.2268 13.249Z" fill="#E34454"/>
<path d="M32.1678 12.1312L22.2609 17.8885L1.24902 5.75726L11.1559 0L32.1678 12.1312Z" fill="#47A047"/>
<path d="M21.7706 14.1476C21.8786 14.2099 21.9135 14.279 21.8717 14.357C21.8376 14.4349 21.7495 14.5129 21.6077 14.5953C21.4659 14.6777 21.3278 14.7311 21.1934 14.7511C21.0627 14.7735 20.9434 14.7534 20.8353 14.6911C20.7312 14.6309 20.6962 14.5619 20.7305 14.4839C20.7685 14.4037 20.8525 14.3236 20.9943 14.2412C21.1324 14.1609 21.2744 14.1097 21.4088 14.0897C21.547 14.0674 21.6664 14.0874 21.7706 14.1476Z" fill="#96D696"/>
<path fill-rule="evenodd" clip-rule="evenodd" d="M21.8208 15.1139C22.0162 14.9441 22.1271 14.7676 22.161 14.5912C22.1951 14.4146 22.1251 14.2549 21.9516 14.105C21.7818 13.9586 21.5933 13.8952 21.3895 13.9253C21.1859 13.9552 20.9863 14.0551 20.7908 14.2249C20.5917 14.398 20.4769 14.5712 20.4468 14.7443C20.4129 14.9207 20.4828 15.0872 20.6525 15.2337C20.8261 15.3836 21.0147 15.4401 21.2183 15.4103C21.4181 15.3836 21.6216 15.287 21.8208 15.1139ZM21.6077 14.9308C21.4659 15.054 21.3278 15.1339 21.1934 15.1638C21.0627 15.1972 20.9434 15.1672 20.8353 15.074C20.7312 14.9841 20.6962 14.8808 20.7305 14.7642C20.7685 14.6443 20.8525 14.5245 20.9943 14.4013C21.1324 14.2814 21.2744 14.2048 21.4088 14.1749C21.547 14.1416 21.6664 14.1715 21.7706 14.2614C21.8786 14.3547 21.9135 14.4579 21.8717 14.5745C21.8376 14.6909 21.7495 14.8076 21.6077 14.9308Z" fill="#4C5671"/>
<path d="M23.0139 14.8653C23.2508 15.002 23.0863 15.1762 22.851 15.313C22.6134 15.4511 22.3171 15.5464 22.0787 15.4088C21.8438 15.2732 22.0016 15.0961 22.2377 14.9589C22.3758 14.8786 22.5178 14.8274 22.6521 14.8074C22.7904 14.7851 22.9098 14.8051 23.0139 14.8653Z" fill="#96D696"/>
<path fill-rule="evenodd" clip-rule="evenodd" d="M21.8952 15.9519C22.2603 16.2674 22.7092 16.1402 23.0635 15.832C23.4248 15.5178 23.5576 15.1359 23.1943 14.822C23.0246 14.6754 22.8361 14.612 22.6323 14.6421C22.4287 14.672 22.229 14.772 22.0336 14.942C21.67 15.2583 21.5306 15.6369 21.8952 15.9519ZM22.851 15.6486C22.7092 15.772 22.5711 15.852 22.4368 15.8819C22.3061 15.9153 22.1867 15.8853 22.0787 15.792C21.8438 15.5891 22.0016 15.3241 22.2377 15.1187C22.3758 14.9986 22.5178 14.9219 22.6521 14.892C22.7904 14.8587 22.9098 14.8886 23.0139 14.9786C23.2507 15.1832 23.0864 15.4439 22.851 15.6486Z" fill="#4C5671"/>
<path d="M27.9798 11.9959C28.2614 12.1585 28.2628 12.4214 27.9831 12.5839C27.7033 12.7465 27.2497 12.7465 26.9681 12.5839C26.6865 12.4213 26.6849 12.1586 26.9648 11.9959C27.2444 11.8334 27.6982 11.8334 27.9798 11.9959Z" fill="#47A047"/>
<path d="M24.9915 10.2704C25.2693 10.4307 25.2707 10.6936 24.991 10.8561C24.7111 11.0187 24.2575 11.0187 23.9798 10.8583C23.6982 10.6957 23.6966 10.433 23.9765 10.2703C24.2561 10.1078 24.7099 10.1078 24.9915 10.2704Z" fill="#5FAF5F"/>
<path d="M26.4843 11.1317C26.7659 11.2943 26.7672 11.5571 26.4876 11.7196C26.2077 11.8823 25.7541 11.8822 25.4725 11.7197C25.1948 11.5593 25.1932 11.2965 25.473 11.1339C25.7527 10.9714 26.2065 10.9713 26.4843 11.1317Z" fill="#47A047"/>
<path d="M21.1267 13.6019L19.8734 14.3303L19.6689 14.2123L20.7345 13.593L20.48 13.446L20.6677 13.3369L21.1267 13.6019Z" fill="#4C5671"/>
<path fill-rule="evenodd" clip-rule="evenodd" d="M13.7966 7.21224C15.4107 6.27423 17.6386 5.97533 19.2777 6.39438L11.3476 1.81593C10.877 1.54423 10.1118 1.54202 9.64044 1.81595L4.4667 4.8226C3.99533 5.09653 4.00163 5.53976 4.47223 5.81146L12.4014 10.3893C11.6724 9.44191 12.1796 8.15195 13.7966 7.21224ZM12.2999 6.34813C11.2151 6.97852 9.45412 6.97853 8.36245 6.34825C7.27078 5.71798 7.26504 4.69794 8.34979 4.06755C9.43431 3.4373 11.1953 3.43729 12.287 4.06756C13.3787 4.69784 13.3844 5.71788 12.2999 6.34813Z" fill="#96D696"/>
<path d="M12.2871 4.06743C13.3788 4.69771 13.3845 5.71775 12.3 6.34801C11.2152 6.97839 9.45421 6.9784 8.36254 6.34813C7.27087 5.71785 7.26514 4.6978 8.34987 4.06743C9.4344 3.43717 11.1954 3.43715 12.2871 4.06743Z" fill="#47A047"/>
<path d="M20.2994 6.7981C20.6 6.97167 20.8334 7.17166 21.0014 7.38983C21.7322 8.33907 21.2235 9.63057 19.6094 10.5686C17.9924 11.5083 15.7671 11.8063 14.127 11.3859C13.7495 11.2892 13.4031 11.1544 13.1021 10.9807C12.8019 10.8074 12.5687 10.6074 12.4009 10.3894C11.6719 9.44196 12.1791 8.15201 13.7962 7.2123C15.4103 6.27429 17.6382 5.97539 19.2773 6.39443C19.654 6.49076 19.9995 6.62494 20.2994 6.7981Z" fill="#47A047"/>
<path fill-rule="evenodd" clip-rule="evenodd" d="M28.9307 11.9671C29.4051 12.241 29.4114 12.6842 28.9401 12.9582L23.7663 15.9648C23.295 16.2388 22.5298 16.2366 22.0553 15.9626L14.1279 11.3858C15.768 11.8061 17.9934 11.5081 19.6104 10.5684C21.2245 9.63039 21.7332 8.33889 21.0023 7.38965L28.9307 11.9671ZM22.4601 15.633C22.6599 15.6152 22.8634 15.5506 23.0626 15.4349C23.4238 15.2249 23.5566 14.9698 23.1933 14.76C23.0236 14.662 22.8351 14.6197 22.6313 14.6398C22.4277 14.6598 22.2281 14.7266 22.0326 14.8402C21.669 15.0515 21.5297 15.3045 21.8943 15.515C22.0678 15.6152 22.2565 15.653 22.4601 15.633ZM21.8209 14.7177C21.6217 14.8334 21.4182 14.8981 21.2184 14.9159C21.0148 14.9359 20.8261 14.898 20.6526 14.7978C20.4828 14.6998 20.413 14.5884 20.4469 14.4705C20.477 14.3546 20.5917 14.2388 20.7909 14.123C20.9864 14.0095 21.186 13.9426 21.3896 13.9226C21.5934 13.9025 21.7819 13.9449 21.9517 14.0429C22.1252 14.1431 22.1951 14.2499 22.1611 14.368C22.1272 14.486 22.0163 14.6041 21.8209 14.7177ZM26.97 12.584C27.2516 12.7466 27.7052 12.7467 27.9851 12.584C28.2648 12.4215 28.2634 12.1586 27.9818 11.9961C27.7002 11.8335 27.2464 11.8335 26.9667 11.9961C26.6868 12.1587 26.6884 12.4214 26.97 12.584ZM24.9912 10.8557C24.7113 11.0184 24.2577 11.0183 23.98 10.858C23.6984 10.6954 23.6968 10.4326 23.9767 10.27C24.2563 10.1075 24.7101 10.1074 24.9917 10.27C25.2695 10.4303 25.2708 10.6932 24.9912 10.8557ZM25.473 11.1342C25.1932 11.2968 25.1948 11.5595 25.4725 11.7199C25.7541 11.8825 26.2077 11.8825 26.4876 11.7199C26.7672 11.5574 26.7659 11.2945 26.4843 11.1319C26.2065 10.9716 25.7527 10.9716 25.473 11.1342ZM21.1267 13.6018L19.8733 14.3302L19.6689 14.2121L20.7345 13.5929L20.4799 13.4459L20.6676 13.3368L21.1267 13.6018Z" fill="#96D696"/>
<path d="M24.1317 7.49187L14.2248 13.2491L10.4902 11.093L20.3942 5.33398L24.1317 7.49187Z" fill="#E3E7F0"/>
<path d="M20.0016 5.10742L10.0947 10.8646L10.4906 11.0932L20.3945 5.33429L20.0016 5.10742Z" fill="#ED5D71"/>
<path d="M24.5227 7.71758L24.1325 7.49219L14.2256 13.2496L14.6223 13.4786L24.5227 7.71758Z" fill="#ED5D71"/>
<path d="M32.1761 14.512L22.2692 20.263L22.2686 20.0361L32.1755 14.2852L32.1761 14.512Z" fill="#5FAF5F"/>
<path d="M32.1732 13.9866L22.2663 19.7376L22.2656 19.5111L32.1725 13.7598L32.1732 13.9866Z" fill="#5FAF5F"/>
<path d="M22.2617 17.8881L32.1686 12.1309L32.1694 12.4128L22.2625 18.1638L22.2617 17.8881Z" fill="#5FAF5F"/>
<path d="M32.1808 16.5635L22.2739 22.3204L22.2734 22.1348L32.1803 16.3838L32.1808 16.5635Z" fill="#5FAF5F"/>
<path d="M32.178 15.5615L22.2711 21.3125L22.2705 21.0859L32.1774 15.335L32.178 15.5615Z" fill="#5FAF5F"/>
<path d="M32.18 16.0859L22.2731 21.8372L22.2725 21.6103L32.1793 15.8594L32.18 16.0859Z" fill="#5FAF5F"/>
<path d="M32.1771 15.0361L22.2702 20.7874L22.2695 20.5605L32.1764 14.8096L32.1771 15.0361Z" fill="#5FAF5F"/>
<path d="M22.2627 18.4619L32.1696 12.7109L32.1703 12.9378L22.2634 18.6885L22.2627 18.4619Z" fill="#5FAF5F"/>
<path d="M32.1716 13.2354L32.1722 13.4619L22.2653 19.2129L22.2646 18.9863L32.1716 13.2354Z" fill="#5FAF5F"/>
<path d="M5.62462 23.1468L0.00186467 15.0977L0.000976562 15.4124L5.62373 23.4615L5.62462 23.1468Z" fill="#47A047"/>
<path d="M5.63337 20.3766L0.0106537 12.3271L0.00976562 12.6422L5.63248 20.6914L5.63337 20.3766Z" fill="#47A047"/>
<path d="M5.62657 22.5927L0.00381787 14.5439L0.00292969 14.8587L5.62569 22.9078L5.62657 22.5927Z" fill="#47A047"/>
<path d="M5.63412 19.9138L0.0114082 11.8516L0.0107422 12.0882L5.6335 20.1373L5.63412 19.9138Z" fill="#47A047"/>
<path d="M5.62848 22.0393L0.00577092 13.9902L0.00488281 14.305L5.62759 22.3541L5.62848 22.0393Z" fill="#47A047"/>
<path d="M5.63048 21.4847L0.00772405 13.4355L0.00683594 13.7503L5.62959 21.7994L5.63048 21.4847Z" fill="#47A047"/>
<path d="M5.63146 20.931L0.00870061 12.8818L0.0078125 13.1969L5.63057 21.2457L5.63146 20.931Z" fill="#47A047"/>
<path d="M5.6236 23.7007L0.000888108 15.6523L0 15.9667L5.62271 24.0159L5.6236 23.7007Z" fill="#47A047"/>
</svg>
