<svg width="30" height="30" viewBox="0 0 30 30" fill="none" xmlns="http://www.w3.org/2000/svg">
<path d="M29.0692 24.9389H19.8352C19.6587 24.9389 19.5156 24.7959 19.5156 24.6193V23.1409C19.5156 22.9643 19.6587 22.8213 19.8352 22.8213H29.0692C29.2457 22.8213 29.3888 22.9643 29.3888 23.1409V24.6193C29.3888 24.7958 29.2457 24.9389 29.0692 24.9389Z" fill="url(#paint0_linear_1_15231)"/>
<path d="M27.8976 24.9389H21.008C20.8548 24.9389 20.7305 24.8147 20.7305 24.6614V23.0988C20.7305 22.9455 20.8547 22.8213 21.008 22.8213H27.8976C28.0509 22.8213 28.1752 22.9455 28.1752 23.0988V24.6614C28.1752 24.8146 28.0509 24.9389 27.8976 24.9389Z" fill="url(#paint1_linear_1_15231)"/>
<path d="M25.6375 24.9389H23.265C23.1726 24.9389 23.0977 24.864 23.0977 24.7716V22.9886C23.0977 22.8962 23.1726 22.8213 23.265 22.8213H25.6375C25.7299 22.8213 25.8048 22.8962 25.8048 22.9886V24.7716C25.8048 24.864 25.7299 24.9389 25.6375 24.9389Z" fill="url(#paint2_linear_1_15231)"/>
<path d="M20.1135 23.0791C19.9371 23.0791 19.7939 23.2222 19.7939 23.3987V24.8772C19.7939 24.8977 19.7961 24.9177 19.7998 24.9371C19.8113 24.9383 19.823 24.9391 19.8349 24.9391H29.0688C29.2453 24.9391 29.3884 24.796 29.3884 24.6195V23.141C29.3884 23.1205 29.3863 23.1005 29.3826 23.0811C29.371 23.0799 29.3593 23.0791 29.3475 23.0791H20.1135Z" fill="url(#paint3_linear_1_15231)"/>
<path d="M29.0692 22.8217H19.8352C19.6587 22.8217 19.5156 22.6787 19.5156 22.5022V21.0237C19.5156 20.8472 19.6587 20.7041 19.8352 20.7041H29.0692C29.2457 20.7041 29.3888 20.8472 29.3888 21.0237V22.5022C29.3888 22.6786 29.2457 22.8217 29.0692 22.8217Z" fill="url(#paint4_linear_1_15231)"/>
<path d="M27.8976 22.8217H21.008C20.8548 22.8217 20.7305 22.6975 20.7305 22.5442V20.9816C20.7305 20.8284 20.8547 20.7041 21.008 20.7041H27.8976C28.0509 20.7041 28.1752 20.8283 28.1752 20.9816V22.5443C28.1752 22.6975 28.0509 22.8217 27.8976 22.8217Z" fill="url(#paint5_linear_1_15231)"/>
<path d="M25.6375 22.8217H23.265C23.1726 22.8217 23.0977 22.7468 23.0977 22.6544V20.8715C23.0977 20.779 23.1726 20.7041 23.265 20.7041H25.6375C25.7299 20.7041 25.8048 20.779 25.8048 20.8715V22.6544C25.8048 22.7468 25.7299 22.8217 25.6375 22.8217Z" fill="url(#paint6_linear_1_15231)"/>
<path d="M20.1135 20.9609C19.9371 20.9609 19.7939 21.104 19.7939 21.2805V22.759C19.7939 22.7795 19.7961 22.7995 19.7998 22.8189C19.8113 22.8202 19.823 22.8209 19.8349 22.8209H29.0688C29.2453 22.8209 29.3884 22.6779 29.3884 22.5013V21.0229C29.3884 21.0023 29.3863 20.9824 29.3826 20.9629C29.371 20.9616 29.3593 20.9609 29.3475 20.9609H20.1135Z" fill="url(#paint7_linear_1_15231)"/>
<path d="M29.0692 20.7036H19.8352C19.6587 20.7036 19.5156 20.5605 19.5156 20.384V18.9055C19.5156 18.729 19.6587 18.5859 19.8352 18.5859H29.0692C29.2457 18.5859 29.3888 18.729 29.3888 18.9055V20.384C29.3888 20.5605 29.2457 20.7036 29.0692 20.7036Z" fill="url(#paint8_linear_1_15231)"/>
<path d="M27.8976 20.7036H21.008C20.8548 20.7036 20.7305 20.5793 20.7305 20.4261V18.8635C20.7305 18.7102 20.8547 18.5859 21.008 18.5859H27.8976C28.0509 18.5859 28.1752 18.7102 28.1752 18.8635V20.4261C28.1752 20.5793 28.0509 20.7036 27.8976 20.7036Z" fill="url(#paint9_linear_1_15231)"/>
<path d="M25.6375 20.7036H23.265C23.1726 20.7036 23.0977 20.6286 23.0977 20.5362V18.7533C23.0977 18.6609 23.1726 18.5859 23.265 18.5859H25.6375C25.7299 18.5859 25.8048 18.6609 25.8048 18.7533V20.5362C25.8048 20.6286 25.7299 20.7036 25.6375 20.7036Z" fill="url(#paint10_linear_1_15231)"/>
<path d="M20.1135 18.8438C19.9371 18.8438 19.7939 18.9868 19.7939 19.1633V20.6418C19.7939 20.6623 19.7961 20.6823 19.7998 20.7017C19.8113 20.703 19.823 20.7037 19.8349 20.7037H29.0688C29.2453 20.7037 29.3884 20.5607 29.3884 20.3842V18.9057C29.3884 18.8852 29.3863 18.8652 29.3826 18.8457C29.371 18.8445 29.3593 18.8438 29.3475 18.8438H20.1135Z" fill="url(#paint11_linear_1_15231)"/>
<path d="M29.0692 18.5864H19.8352C19.6587 18.5864 19.5156 18.4433 19.5156 18.2668V16.7883C19.5156 16.6118 19.6587 16.4688 19.8352 16.4688H29.0692C29.2457 16.4688 29.3888 16.6118 29.3888 16.7883V18.2668C29.3888 18.4433 29.2457 18.5864 29.0692 18.5864Z" fill="url(#paint12_linear_1_15231)"/>
<path d="M27.8976 18.5864H21.008C20.8548 18.5864 20.7305 18.4622 20.7305 18.3089V16.7463C20.7305 16.593 20.8547 16.4688 21.008 16.4688H27.8976C28.0509 16.4688 28.1752 16.593 28.1752 16.7463V18.3089C28.1752 18.4622 28.0509 18.5864 27.8976 18.5864Z" fill="url(#paint13_linear_1_15231)"/>
<path d="M25.6375 18.5864H23.265C23.1726 18.5864 23.0977 18.5115 23.0977 18.419V16.6361C23.0977 16.5437 23.1726 16.4688 23.265 16.4688H25.6375C25.7299 16.4688 25.8048 16.5437 25.8048 16.6361V18.419C25.8048 18.5115 25.7299 18.5864 25.6375 18.5864Z" fill="url(#paint14_linear_1_15231)"/>
<path d="M20.1135 16.7256C19.9371 16.7256 19.7939 16.8686 19.7939 17.0452V18.5236C19.7939 18.5442 19.7961 18.5642 19.7998 18.5836C19.8113 18.5849 19.823 18.5856 19.8349 18.5856H29.0688C29.2453 18.5856 29.3884 18.4425 29.3884 18.266V16.7875C29.3884 16.767 29.3863 16.7471 29.3826 16.7276C29.371 16.7263 29.3593 16.7256 29.3475 16.7256H20.1135Z" fill="url(#paint15_linear_1_15231)"/>
<path d="M29.0692 16.4682H19.8352C19.6587 16.4682 19.5156 16.3252 19.5156 16.1486V14.6702C19.5156 14.4936 19.6587 14.3506 19.8352 14.3506H29.0692C29.2457 14.3506 29.3888 14.4936 29.3888 14.6702V16.1486C29.3888 16.3252 29.2457 16.4682 29.0692 16.4682Z" fill="url(#paint16_linear_1_15231)"/>
<path d="M27.8976 16.4682H21.008C20.8548 16.4682 20.7305 16.344 20.7305 16.1907V14.6281C20.7305 14.4748 20.8547 14.3506 21.008 14.3506H27.8976C28.0509 14.3506 28.1752 14.4748 28.1752 14.6281V16.1907C28.1752 16.344 28.0509 16.4682 27.8976 16.4682Z" fill="url(#paint17_linear_1_15231)"/>
<path d="M25.6375 16.4682H23.265C23.1726 16.4682 23.0977 16.3933 23.0977 16.3009V14.5179C23.0977 14.4255 23.1726 14.3506 23.265 14.3506H25.6375C25.7299 14.3506 25.8048 14.4255 25.8048 14.5179V16.3009C25.8048 16.3933 25.7299 16.4682 25.6375 16.4682Z" fill="url(#paint18_linear_1_15231)"/>
<path d="M20.1135 14.6084C19.9371 14.6084 19.7939 14.7515 19.7939 14.928V16.4065C19.7939 16.427 19.7961 16.447 19.7998 16.4664C19.8113 16.4676 19.823 16.4684 19.8349 16.4684H29.0688C29.2453 16.4684 29.3884 16.3253 29.3884 16.1488V14.6703C29.3884 14.6498 29.3863 14.6298 29.3826 14.6104C29.371 14.6092 29.3593 14.6084 29.3475 14.6084L20.1135 14.6084Z" fill="url(#paint19_linear_1_15231)"/>
<path d="M29.0692 14.351H19.8352C19.6587 14.351 19.5156 14.208 19.5156 14.0315V12.553C19.5156 12.3765 19.6587 12.2334 19.8352 12.2334H29.0692C29.2457 12.2334 29.3888 12.3765 29.3888 12.553V14.0315C29.3888 14.208 29.2457 14.351 29.0692 14.351Z" fill="url(#paint20_linear_1_15231)"/>
<path d="M27.8976 14.351H21.008C20.8548 14.351 20.7305 14.2268 20.7305 14.0735V12.5109C20.7305 12.3577 20.8547 12.2334 21.008 12.2334H27.8976C28.0509 12.2334 28.1752 12.3576 28.1752 12.5109V14.0735C28.1752 14.2268 28.0509 14.351 27.8976 14.351Z" fill="url(#paint21_linear_1_15231)"/>
<path d="M25.6375 14.351H23.265C23.1726 14.351 23.0977 14.2761 23.0977 14.1837V12.4008C23.0977 12.3083 23.1726 12.2334 23.265 12.2334H25.6375C25.7299 12.2334 25.8048 12.3083 25.8048 12.4008V14.1837C25.8048 14.2762 25.7299 14.351 25.6375 14.351Z" fill="url(#paint22_linear_1_15231)"/>
<path d="M20.1135 12.4912C19.9371 12.4912 19.7939 12.6343 19.7939 12.8108V14.2893C19.7939 14.3098 19.7961 14.3297 19.7998 14.3492C19.8113 14.3504 19.823 14.3512 19.8349 14.3512H29.0688C29.2453 14.3512 29.3884 14.2081 29.3884 14.0316V12.5532C29.3884 12.5326 29.3863 12.5127 29.3826 12.4932C29.371 12.492 29.3593 12.4912 29.3475 12.4912L20.1135 12.4912Z" fill="url(#paint23_linear_1_15231)"/>
<path d="M29.0692 12.2329H19.8352C19.6587 12.2329 19.5156 12.0898 19.5156 11.9133V10.4348C19.5156 10.2583 19.6587 10.1152 19.8352 10.1152H29.0692C29.2457 10.1152 29.3888 10.2583 29.3888 10.4348V11.9133C29.3888 12.0898 29.2457 12.2329 29.0692 12.2329Z" fill="url(#paint24_linear_1_15231)"/>
<path d="M27.8976 12.2329H21.008C20.8548 12.2329 20.7305 12.1087 20.7305 11.9554V10.3928C20.7305 10.2395 20.8547 10.1152 21.008 10.1152H27.8976C28.0509 10.1152 28.1752 10.2395 28.1752 10.3928V11.9553C28.1752 12.1086 28.0509 12.2329 27.8976 12.2329Z" fill="url(#paint25_linear_1_15231)"/>
<path d="M25.6375 12.2329H23.265C23.1726 12.2329 23.0977 12.1579 23.0977 12.0655V10.2826C23.0977 10.1902 23.1726 10.1152 23.265 10.1152H25.6375C25.7299 10.1152 25.8048 10.1902 25.8048 10.2826V12.0655C25.8048 12.1579 25.7299 12.2329 25.6375 12.2329Z" fill="url(#paint26_linear_1_15231)"/>
<path d="M20.1135 10.373C19.9371 10.373 19.7939 10.5161 19.7939 10.6926V12.1711C19.7939 12.1916 19.7961 12.2116 19.7998 12.231C19.8113 12.2323 19.823 12.233 19.8349 12.233H29.0688C29.2453 12.233 29.3884 12.09 29.3884 11.9135V10.435C29.3884 10.4145 29.3863 10.3945 29.3826 10.375C29.371 10.3738 29.3593 10.373 29.3475 10.373L20.1135 10.373Z" fill="url(#paint27_linear_1_15231)"/>
<path d="M29.0692 10.1157H19.8352C19.6587 10.1157 19.5156 9.97263 19.5156 9.7961V8.31763C19.5156 8.14111 19.6587 7.99805 19.8352 7.99805H29.0692C29.2457 7.99805 29.3888 8.14111 29.3888 8.31763V9.7961C29.3888 9.97257 29.2457 10.1157 29.0692 10.1157Z" fill="url(#paint28_linear_1_15231)"/>
<path d="M27.8976 10.1157H21.008C20.8548 10.1157 20.7305 9.99146 20.7305 9.83816V8.27558C20.7305 8.12234 20.8547 7.99805 21.008 7.99805H27.8976C28.0509 7.99805 28.1752 8.12228 28.1752 8.27558V9.83816C28.1752 9.99146 28.0509 10.1157 27.8976 10.1157Z" fill="url(#paint29_linear_1_15231)"/>
<path d="M25.6375 10.1157H23.265C23.1726 10.1157 23.0977 10.0407 23.0977 9.94834V8.1654C23.0977 8.07299 23.1726 7.99805 23.265 7.99805H25.6375C25.7299 7.99805 25.8048 8.07299 25.8048 8.1654V9.94834C25.8048 10.0407 25.7299 10.1157 25.6375 10.1157Z" fill="url(#paint30_linear_1_15231)"/>
<path d="M20.1135 8.25586C19.9371 8.25586 19.7939 8.39892 19.7939 8.57545V10.0539C19.7939 10.0744 19.7961 10.0944 19.7998 10.1139C19.8113 10.1151 19.823 10.1159 19.8349 10.1159H29.0688C29.2453 10.1159 29.3884 9.9728 29.3884 9.79627V8.3178C29.3884 8.29727 29.3863 8.27727 29.3826 8.25786C29.371 8.25662 29.3593 8.25586 29.3475 8.25586L20.1135 8.25586Z" fill="url(#paint31_linear_1_15231)"/>
<path d="M24.2646 15.7451L23.416 11.2949C22.783 7.97551 19.8806 5.57422 16.5014 5.57422H13.3176C9.93841 5.57422 7.036 7.97551 6.40306 11.2949L5.92194 13.818C5.45959 16.2427 4.72053 18.6148 3.61524 20.822C3.29207 21.4673 3.12236 22.2027 3.15418 22.9807C3.24612 25.2315 5.22712 27.1684 7.47947 27.2124C7.496 27.2127 7.51247 27.213 7.52894 27.2131C8.55082 27.222 9.5347 27.6202 10.2513 28.3487C11.0523 29.163 12.1664 29.6679 13.3989 29.6679C14.8948 29.6679 16.2165 28.9243 17.0156 27.7867C17.2728 27.4205 17.6947 27.2124 18.1423 27.2132H18.15C18.3423 27.2132 18.5313 27.199 18.7159 27.1716C19.0642 27.12 19.4165 27.2089 19.7039 27.4122C20.4814 27.9621 21.4441 28.2674 22.4804 28.215C24.6983 28.1027 26.5075 26.3273 26.6582 24.1117C26.7124 23.3145 26.5547 22.559 26.236 21.8953C25.3006 19.9474 24.6693 17.8677 24.2646 15.7451Z" fill="url(#paint32_radial_1_15231)"/>
<circle cx="7.56797" cy="22.7955" r="4.41758" fill="url(#paint33_linear_1_15231)"/>
<circle cx="13.3981" cy="25.2506" r="4.41758" fill="url(#paint34_linear_1_15231)"/>
<circle cx="22.2516" cy="23.8033" r="4.41758" fill="url(#paint35_linear_1_15231)"/>
<path d="M26.6585 24.1121C26.7128 23.3149 26.5551 22.5593 26.2364 21.8956C25.3009 19.9478 24.6696 17.868 24.2649 15.7454L23.4164 11.2952C23.1867 10.0907 22.6571 9.0082 21.9155 8.11632C20.6881 7.10002 19.1169 6.49902 17.4263 6.49902H14.2425C10.8633 6.49902 7.96085 8.90031 7.32791 12.2197L6.84679 14.7428C6.38444 17.1675 5.64538 19.5397 4.54009 21.7467C4.21692 22.392 4.04721 23.1274 4.07898 23.9054C4.11515 24.791 4.44462 25.6273 4.96709 26.3195C5.68609 26.861 6.56021 27.1946 7.47979 27.2126C7.49632 27.2129 7.51279 27.2132 7.52926 27.2133C8.55115 27.2222 9.53508 27.6204 10.2517 28.3489C11.0527 29.1632 12.1668 29.6682 13.3993 29.6682C14.8951 29.6682 16.2169 28.9245 17.016 27.7869C17.2732 27.4207 17.6951 27.2126 18.1427 27.2135H18.1504C18.3427 27.2135 18.5317 27.1992 18.7163 27.1718C19.0645 27.1202 19.4168 27.2091 19.7043 27.4124C20.4818 27.9623 21.4445 28.2676 22.4808 28.2152C24.6987 28.1031 26.5079 26.3276 26.6585 24.1121Z" fill="url(#paint36_linear_1_15231)"/>
<path d="M17.4757 10.7751C17.1559 10.6762 16.852 10.6049 16.5642 10.561C16.4253 10.5398 16.2851 10.5226 16.1437 10.5091C16.1426 10.5084 16.1414 10.5078 16.1403 10.5071L15.4927 9.83641C15.3649 9.75294 15.2262 9.71094 15.077 9.71094C14.9063 9.71094 14.7624 9.7507 14.6452 9.82964C14.5278 9.90882 14.4693 10.0028 14.4693 10.1112V10.5265C13.5419 10.6569 12.7769 10.9995 12.1747 11.5539C11.5722 12.1083 11.2712 12.8691 11.2712 13.8366C11.2712 14.2311 11.3405 14.5909 11.479 14.916C11.6175 15.2413 11.7775 15.5076 11.9589 15.7155L14.4694 18.2283V19.7212C14.0536 19.6467 13.6004 19.4361 13.1102 19.0896C12.6197 18.7433 12.2732 18.5699 12.0707 18.5699C11.7829 18.5699 11.5296 18.7193 11.3112 19.0176C11.0926 19.3162 10.9834 19.6148 10.9834 19.9132C10.9834 20.302 11.1742 20.6612 11.555 20.9909L17.8154 27.2512C17.9213 27.2264 18.0308 27.2137 18.142 27.2139H18.1497C18.342 27.2139 18.531 27.1997 18.7156 27.1723C19.0639 27.1207 19.4162 27.2096 19.7036 27.4129C20.4811 27.9628 21.4438 28.2681 22.4801 28.2156C24.698 28.1034 26.5072 26.328 26.6579 24.1124C26.7121 23.3152 26.5544 22.5596 26.2357 21.896C25.5847 20.5403 25.0814 19.1207 24.6988 17.6673L18.2512 11.2199C18.0538 11.0222 17.7955 10.8741 17.4757 10.7751Z" fill="url(#paint37_linear_1_15231)"/>
<path fill-rule="evenodd" clip-rule="evenodd" d="M18.636 17.3067C18.5025 16.9656 18.3427 16.683 18.1562 16.4592C17.9695 16.2353 17.7217 16.0222 17.4126 15.8195C17.1033 15.6171 16.8262 15.4625 16.5811 15.3558C16.3358 15.2493 16.0374 15.1267 15.6857 14.988V12.6533C16.0694 12.6853 16.4397 12.7919 16.797 12.9731C17.1541 13.1545 17.4072 13.245 17.5566 13.245C17.8657 13.245 18.1083 13.0933 18.2842 12.79C18.4601 12.4866 18.548 12.1938 18.548 11.912C18.548 11.6484 18.4494 11.4178 18.2522 11.2199C18.0548 11.0222 17.7965 10.8741 17.4767 10.7751C17.1568 10.6762 16.853 10.6049 16.5651 10.561C16.2773 10.517 15.984 10.4895 15.6857 10.4785V10.1095C15.6857 10.011 15.6217 9.92005 15.4937 9.83635C15.3658 9.75288 15.2271 9.71094 15.078 9.71094C14.9073 9.71094 14.7634 9.7507 14.6462 9.82964C14.5288 9.90882 14.4703 10.0028 14.4703 10.1112V10.5265C13.5428 10.6569 12.7778 10.9995 12.1757 11.5539C11.5732 12.1083 11.2722 12.8691 11.2722 13.8366C11.2722 14.2311 11.3414 14.5909 11.48 14.916C11.6185 15.2413 11.7784 15.5076 11.9598 15.7155C12.141 15.9234 12.3968 16.126 12.7274 16.3232C13.0577 16.5206 13.3351 16.667 13.5589 16.7629C13.7828 16.8588 14.0866 16.9815 14.4704 17.1307V19.7212C14.0546 19.6467 13.6014 19.4361 13.1112 19.0896C12.6207 18.7433 12.2741 18.5699 12.0717 18.5699C11.7839 18.5699 11.5306 18.7193 11.3121 19.0176C11.0936 19.3162 10.9844 19.6148 10.9844 19.9132C10.9844 20.4356 11.3282 20.9046 12.0158 21.3204C12.7034 21.7362 13.5214 21.96 14.4704 21.992V22.3917C14.4704 22.5089 14.5289 22.6101 14.6463 22.6956C14.7634 22.7807 14.9073 22.8235 15.078 22.8235C15.2271 22.8235 15.3659 22.778 15.4938 22.6876C15.6218 22.5969 15.6857 22.4982 15.6857 22.3917V21.928C16.6452 21.7681 17.41 21.3898 17.9804 20.7926C18.5506 20.1957 18.8359 19.4122 18.8359 18.4419C18.8358 18.0262 18.7692 17.6479 18.636 17.3067ZM14.6299 14.6042C13.9476 14.3163 13.6064 13.9805 13.6064 13.5967C13.6064 13.1385 13.9475 12.8399 14.6299 12.7012V14.6042ZM15.5254 17.5625V19.7053C16.1755 19.5561 16.5009 19.2203 16.5009 18.6979C16.5009 18.2501 16.1755 17.8718 15.5254 17.5625Z" fill="url(#paint38_linear_1_15231)"/>
<path d="M17.0797 5.57451H12.7402L10.766 1.78981C10.4745 1.2311 10.8073 0.549808 11.4271 0.436161L12.72 0.199103C14.1679 -0.0663675 15.6521 -0.0663675 17.0999 0.199103L18.3928 0.436161C19.0126 0.549808 19.3454 1.23104 19.0539 1.78981L17.0797 5.57451Z" fill="url(#paint39_linear_1_15231)"/>
<path d="M15.6305 5.57451H14.1872L13.5306 1.78981C13.4337 1.2311 13.5444 0.549808 13.7505 0.436161L14.1805 0.199103C14.6621 -0.0663675 15.1556 -0.0663675 15.6372 0.199103L16.0672 0.436161C16.2734 0.549808 16.3841 1.23104 16.2871 1.78981L15.6305 5.57451Z" fill="url(#paint40_linear_1_15231)"/>
<path d="M18.9876 0.816852C19.0722 0.937204 19.0296 1.10491 18.8984 1.17144C18.2827 1.48456 17.5546 1.48456 16.939 1.17144L16.3947 0.895087C15.779 0.58197 15.0509 0.58197 14.4353 0.895087L13.8917 1.17144C13.276 1.48456 12.5479 1.48456 11.9322 1.17144L11.3629 0.881852C11.1634 0.780381 11.2006 0.478676 11.4205 0.437382C11.4224 0.437029 11.4242 0.436676 11.4261 0.436323L12.719 0.198794C14.1666 -0.0662646 15.651 -0.0662646 17.0988 0.198794L18.3916 0.436323C18.6469 0.482852 18.8532 0.625675 18.9876 0.816852Z" fill="url(#paint41_linear_1_15231)"/>
<path d="M19.0668 1.34751C19.0959 1.27698 19.117 1.20463 19.1324 1.13169C19.0474 0.792043 18.7751 0.50622 18.3932 0.436161L17.1003 0.199103C15.6524 -0.0663675 14.1683 -0.0663675 12.7204 0.199103L11.7561 0.375926C11.6353 0.665396 11.6198 1.02445 11.753 1.34751L13.4952 5.57451H17.0801L18.2455 3.34033L19.0668 1.34751Z" fill="url(#paint42_linear_1_15231)"/>
<path d="M14.9096 5.99849C13.9689 5.99849 13.0786 5.93773 12.3489 5.82544C12.1086 5.78844 11.9475 5.55938 11.9959 5.32114C12.041 5.09961 12.2515 4.95214 12.4749 4.98638C13.1602 5.09144 14.0223 5.15026 14.9096 5.15026C15.7968 5.15026 16.6589 5.09144 17.3442 4.98638C17.5677 4.95214 17.7781 5.09955 17.8232 5.32114C17.8717 5.55938 17.7105 5.78849 17.4702 5.82544C16.7406 5.93773 15.8502 5.99849 14.9096 5.99849Z" fill="url(#paint43_linear_1_15231)"/>
<path d="M9.86328 17.5391C9.82957 17.3987 9.70451 17.2939 9.55381 17.2939H8.38163H6.12305H5.04376C4.65646 18.5035 4.18482 19.6848 3.61529 20.822C3.29211 21.4673 3.12241 22.2027 3.15417 22.9807C3.24611 25.2316 5.22717 27.1684 7.47952 27.2125C7.49605 27.2128 7.51252 27.213 7.52899 27.2132C8.55087 27.222 9.53481 27.6202 10.2515 28.3488C11.0524 29.163 12.1665 29.668 13.399 29.668C14.8949 29.668 16.2166 28.9243 17.0157 27.7868C17.2729 27.4205 17.6948 27.2124 18.1424 27.2133H18.1501C18.3424 27.2133 18.5314 27.199 18.716 27.1716C19.0643 27.12 19.4166 27.2089 19.704 27.4122C19.737 27.4356 19.7708 27.4579 19.8045 27.4803L9.86328 17.5391Z" fill="url(#paint44_linear_1_15231)"/>
<path d="M9.55357 29.9995H0.319588C0.143117 29.9995 0 29.8564 0 29.6799V28.2014C0 28.0249 0.143059 27.8818 0.319588 27.8818H9.55357C9.73004 27.8818 9.87316 28.0249 9.87316 28.2014V29.6799C9.87316 29.8564 9.73004 29.9995 9.55357 29.9995Z" fill="url(#paint45_linear_1_15231)"/>
<path d="M8.38201 30.0005H1.49237C1.33908 30.0005 1.21484 29.8762 1.21484 29.7229V28.1603C1.21484 28.0071 1.33908 27.8828 1.49237 27.8828H8.38201C8.53524 27.8828 8.65954 28.007 8.65954 28.1603V29.7229C8.65954 29.8762 8.5353 30.0005 8.38201 30.0005Z" fill="url(#paint46_linear_1_15231)"/>
<path d="M6.1238 30.0005H3.75134C3.65893 30.0005 3.58398 29.9255 3.58398 29.8331V28.0502C3.58398 27.9578 3.65893 27.8828 3.75134 27.8828H6.1238C6.21622 27.8828 6.29116 27.9578 6.29116 28.0502V29.8331C6.29116 29.9255 6.21622 30.0005 6.1238 30.0005Z" fill="url(#paint47_linear_1_15231)"/>
<path d="M0.597908 28.1396C0.421379 28.1396 0.27832 28.2827 0.27832 28.4592V29.9377C0.27832 29.9582 0.280438 29.9782 0.284144 29.9976C0.295673 29.9989 0.307379 29.9996 0.319261 29.9996H9.55325C9.72978 29.9996 9.87284 29.8566 9.87284 29.6801V28.2016C9.87284 28.1811 9.87072 28.1611 9.86701 28.1416C9.85548 28.1404 9.84378 28.1396 9.83189 28.1396H0.597908Z" fill="url(#paint48_linear_1_15231)"/>
<path d="M9.55357 27.8823H0.319588C0.143117 27.8823 0 27.7392 0 27.5627V26.0842C0 25.9077 0.143059 25.7646 0.319588 25.7646H9.55357C9.73004 25.7646 9.87316 25.9077 9.87316 26.0842V27.5627C9.87316 27.7392 9.73004 27.8823 9.55357 27.8823Z" fill="url(#paint49_linear_1_15231)"/>
<path d="M8.38201 27.8824H1.49237C1.33908 27.8824 1.21484 27.7581 1.21484 27.6048V26.0422C1.21484 25.8889 1.33908 25.7646 1.49237 25.7646H8.38201C8.53524 25.7646 8.65954 25.8889 8.65954 26.0422V27.6048C8.65954 27.7581 8.5353 27.8824 8.38201 27.8824Z" fill="url(#paint50_linear_1_15231)"/>
<path d="M6.1238 27.8823H3.75134C3.65893 27.8823 3.58398 27.8074 3.58398 27.7149V25.932C3.58398 25.8396 3.65893 25.7646 3.75134 25.7646H6.1238C6.21622 25.7646 6.29116 25.8396 6.29116 25.932V27.7149C6.29116 27.8074 6.21622 27.8823 6.1238 27.8823Z" fill="url(#paint51_linear_1_15231)"/>
<path d="M0.597908 26.0225C0.421379 26.0225 0.27832 26.1655 0.27832 26.342V27.8205C0.27832 27.841 0.280438 27.861 0.284144 27.8805C0.295673 27.8818 0.307379 27.8825 0.319261 27.8825H9.55325C9.72978 27.8825 9.87284 27.7394 9.87284 27.5629V26.0844C9.87284 26.0639 9.87072 26.0439 9.86701 26.0245C9.85548 26.0232 9.84378 26.0225 9.83189 26.0225H0.597908Z" fill="url(#paint52_linear_1_15231)"/>
<path d="M9.55357 25.7651H0.319588C0.143117 25.7651 0 25.622 0 25.4455V23.967C0 23.7906 0.143059 23.6475 0.319588 23.6475H9.55357C9.73004 23.6475 9.87316 23.7905 9.87316 23.967V25.4455C9.87316 25.622 9.73004 25.7651 9.55357 25.7651Z" fill="url(#paint53_linear_1_15231)"/>
<path d="M8.38201 25.7651H1.49237C1.33908 25.7651 1.21484 25.6409 1.21484 25.4876V23.925C1.21484 23.7717 1.33908 23.6475 1.49237 23.6475H8.38201C8.53524 23.6475 8.65954 23.7717 8.65954 23.925V25.4876C8.65954 25.6409 8.5353 25.7651 8.38201 25.7651Z" fill="url(#paint54_linear_1_15231)"/>
<path d="M6.1238 25.7651H3.75134C3.65893 25.7651 3.58398 25.6902 3.58398 25.5978V23.8148C3.58398 23.7224 3.65893 23.6475 3.75134 23.6475H6.1238C6.21622 23.6475 6.29116 23.7224 6.29116 23.8148V25.5978C6.29116 25.6902 6.21622 25.7651 6.1238 25.7651Z" fill="url(#paint55_linear_1_15231)"/>
<path d="M0.597908 23.9043C0.421379 23.9043 0.27832 24.0474 0.27832 24.2239V25.7024C0.27832 25.7229 0.280438 25.7429 0.284144 25.7623C0.295673 25.7635 0.307379 25.7643 0.319261 25.7643H9.55325C9.72978 25.7643 9.87284 25.6212 9.87284 25.4447V23.9662C9.87284 23.9457 9.87072 23.9258 9.86701 23.9063C9.85548 23.9051 9.84378 23.9043 9.83189 23.9043H0.597908Z" fill="url(#paint56_linear_1_15231)"/>
<path d="M9.55357 23.6469H0.319588C0.143117 23.6469 0 23.5039 0 23.3274V21.8489C0 21.6724 0.143059 21.5293 0.319588 21.5293H9.55357C9.73004 21.5293 9.87316 21.6724 9.87316 21.8489V23.3274C9.87316 23.5039 9.73004 23.6469 9.55357 23.6469Z" fill="url(#paint57_linear_1_15231)"/>
<path d="M8.38201 23.647H1.49237C1.33908 23.647 1.21484 23.5228 1.21484 23.3695V21.8068C1.21484 21.6536 1.33908 21.5293 1.49237 21.5293H8.38201C8.53524 21.5293 8.65954 21.6535 8.65954 21.8068V23.3695C8.65954 23.5228 8.5353 23.647 8.38201 23.647Z" fill="url(#paint58_linear_1_15231)"/>
<path d="M6.1238 23.6469H3.75134C3.65893 23.6469 3.58398 23.572 3.58398 23.4796V21.6966C3.58398 21.6042 3.65893 21.5293 3.75134 21.5293H6.1238C6.21622 21.5293 6.29116 21.6042 6.29116 21.6966V23.4796C6.29116 23.5721 6.21622 23.6469 6.1238 23.6469Z" fill="url(#paint59_linear_1_15231)"/>
<path d="M0.597908 21.7871C0.421379 21.7871 0.27832 21.9302 0.27832 22.1067V23.5852C0.27832 23.6057 0.280438 23.6256 0.284144 23.6451C0.295673 23.6464 0.307379 23.6471 0.319261 23.6471H9.55325C9.72978 23.6471 9.87284 23.504 9.87284 23.3275V21.8491C9.87284 21.8285 9.87072 21.8086 9.86701 21.7891C9.85548 21.7878 9.84378 21.7871 9.83189 21.7871H0.597908Z" fill="url(#paint60_linear_1_15231)"/>
<path d="M9.55357 21.5298H0.319588C0.143117 21.5298 0 21.3867 0 21.2102V19.7317C0 19.5552 0.143059 19.4121 0.319588 19.4121H9.55357C9.73004 19.4121 9.87316 19.5552 9.87316 19.7317V21.2102C9.87316 21.3866 9.73004 21.5298 9.55357 21.5298Z" fill="url(#paint61_linear_1_15231)"/>
<path d="M8.38201 21.5298H1.49237C1.33908 21.5298 1.21484 21.4055 1.21484 21.2522V19.6896C1.21484 19.5364 1.33908 19.4121 1.49237 19.4121H8.38201C8.53524 19.4121 8.65954 19.5363 8.65954 19.6896V21.2522C8.65954 21.4055 8.5353 21.5298 8.38201 21.5298Z" fill="url(#paint62_linear_1_15231)"/>
<path d="M6.1238 21.5298H3.75134C3.65893 21.5298 3.58398 21.4548 3.58398 21.3624V19.5795C3.58398 19.4871 3.65893 19.4121 3.75134 19.4121H6.1238C6.21622 19.4121 6.29116 19.4871 6.29116 19.5795V21.3624C6.29116 21.4548 6.21622 21.5298 6.1238 21.5298Z" fill="url(#paint63_linear_1_15231)"/>
<path d="M0.597908 19.6689C0.421379 19.6689 0.27832 19.812 0.27832 19.9885V21.467C0.27832 21.4875 0.280438 21.5075 0.284144 21.5269C0.295673 21.5282 0.307379 21.5289 0.319261 21.5289H9.55325C9.72978 21.5289 9.87284 21.3859 9.87284 21.2094V19.7309C9.87284 19.7104 9.87072 19.6904 9.86701 19.6709C9.85548 19.6697 9.84378 19.6689 9.83189 19.6689H0.597908Z" fill="url(#paint64_linear_1_15231)"/>
<path d="M9.55357 19.4116H0.319588C0.143117 19.4116 0 19.2685 0 19.092V17.6135C0 17.437 0.143059 17.2939 0.319588 17.2939H9.55357C9.73004 17.2939 9.87316 17.437 9.87316 17.6135V19.092C9.87316 19.2685 9.73004 19.4116 9.55357 19.4116Z" fill="url(#paint65_linear_1_15231)"/>
<path d="M8.38201 19.4116H1.49237C1.33908 19.4116 1.21484 19.2874 1.21484 19.1341V17.5715C1.21484 17.4182 1.33908 17.2939 1.49237 17.2939H8.38201C8.53524 17.2939 8.65954 17.4182 8.65954 17.5715V19.1341C8.65954 19.2874 8.5353 19.4116 8.38201 19.4116Z" fill="url(#paint66_linear_1_15231)"/>
<path d="M6.1238 19.4116H3.75134C3.65893 19.4116 3.58398 19.3366 3.58398 19.2442V17.4613C3.58398 17.3689 3.65893 17.2939 3.75134 17.2939H6.1238C6.21622 17.2939 6.29116 17.3689 6.29116 17.4613V19.2442C6.29116 19.3366 6.21622 19.4116 6.1238 19.4116Z" fill="url(#paint67_linear_1_15231)"/>
<path d="M0.597908 17.5518C0.421379 17.5518 0.27832 17.6948 0.27832 17.8713V19.3498C0.27832 19.3703 0.280438 19.3903 0.284144 19.4098C0.295673 19.411 0.307379 19.4118 0.319261 19.4118H9.55325C9.72978 19.4118 9.87284 19.2687 9.87284 19.0922V17.6137C9.87284 17.5932 9.87072 17.5732 9.86701 17.5538C9.85548 17.5525 9.84378 17.5518 9.83189 17.5518H0.597908Z" fill="url(#paint68_linear_1_15231)"/>
<path d="M26.868 29.9995H17.634C17.4575 29.9995 17.3145 29.8564 17.3145 29.6799V28.2014C17.3145 28.0249 17.4575 27.8818 17.634 27.8818H26.868C27.0445 27.8818 27.1876 28.0249 27.1876 28.2014V29.6799C27.1876 29.8564 27.0445 29.9995 26.868 29.9995Z" fill="url(#paint69_linear_1_15231)"/>
<path d="M25.6965 30.0005H18.8068C18.6536 30.0005 18.5293 29.8762 18.5293 29.7229V28.1603C18.5293 28.0071 18.6535 27.8828 18.8068 27.8828H25.6965C25.8497 27.8828 25.974 28.007 25.974 28.1603V29.7229C25.974 29.8762 25.8497 30.0005 25.6965 30.0005Z" fill="url(#paint70_linear_1_15231)"/>
<path d="M23.4383 30.0005H21.0658C20.9734 30.0005 20.8984 29.9255 20.8984 29.8331V28.0502C20.8984 27.9578 20.9734 27.8828 21.0658 27.8828H23.4383C23.5307 27.8828 23.6056 27.9578 23.6056 28.0502V29.8331C23.6056 29.9255 23.5307 30.0005 23.4383 30.0005Z" fill="url(#paint71_linear_1_15231)"/>
<path d="M17.9124 28.1396C17.7359 28.1396 17.5928 28.2827 17.5928 28.4592V29.9377C17.5928 29.9582 17.5949 29.9782 17.5986 29.9976C17.6101 29.9989 17.6218 29.9996 17.6337 29.9996H26.8677C27.0442 29.9996 27.1873 29.8566 27.1873 29.6801V28.2016C27.1873 28.1811 27.1852 28.1611 27.1815 28.1416C27.1699 28.1404 27.1582 28.1396 27.1463 28.1396H17.9124Z" fill="url(#paint72_linear_1_15231)"/>
<path d="M26.868 27.8823H17.634C17.4575 27.8823 17.3145 27.7392 17.3145 27.5627V26.0842C17.3145 25.9077 17.4575 25.7646 17.634 25.7646H26.868C27.0445 25.7646 27.1876 25.9077 27.1876 26.0842V27.5627C27.1876 27.7392 27.0445 27.8823 26.868 27.8823Z" fill="url(#paint73_linear_1_15231)"/>
<path d="M25.6965 27.8824H18.8068C18.6536 27.8824 18.5293 27.7581 18.5293 27.6048V26.0422C18.5293 25.8889 18.6535 25.7646 18.8068 25.7646H25.6965C25.8497 25.7646 25.974 25.8889 25.974 26.0422V27.6048C25.974 27.7581 25.8497 27.8824 25.6965 27.8824Z" fill="url(#paint74_linear_1_15231)"/>
<path d="M23.4383 27.8823H21.0658C20.9734 27.8823 20.8984 27.8074 20.8984 27.7149V25.932C20.8984 25.8396 20.9734 25.7646 21.0658 25.7646H23.4383C23.5307 25.7646 23.6056 25.8396 23.6056 25.932V27.7149C23.6056 27.8074 23.5307 27.8823 23.4383 27.8823Z" fill="url(#paint75_linear_1_15231)"/>
<path d="M17.9124 26.0225C17.7359 26.0225 17.5928 26.1655 17.5928 26.342V27.8205C17.5928 27.841 17.5949 27.861 17.5986 27.8805C17.6101 27.8818 17.6218 27.8825 17.6337 27.8825H26.8677C27.0442 27.8825 27.1873 27.7394 27.1873 27.5629V26.0844C27.1873 26.0639 27.1852 26.0439 27.1815 26.0245C27.1699 26.0232 27.1582 26.0225 27.1463 26.0225H17.9124Z" fill="url(#paint76_linear_1_15231)"/>
<path d="M5.16751 12.3342C4.28433 12.9097 3.5308 13.6678 2.96016 14.5546C2.83181 14.754 2.53569 14.7535 2.4081 14.5536C1.84069 13.6648 1.08993 12.9039 0.208868 12.3252C0.0132801 12.1967 0.0138095 11.9046 0.209868 11.7769C1.09304 11.2013 1.84657 10.4433 2.41722 9.55646C2.54551 9.35705 2.84169 9.35758 2.96928 9.55746C3.53669 10.4463 4.28745 11.2072 5.16857 11.7859C5.3641 11.9143 5.36357 12.2065 5.16751 12.3342Z" fill="url(#paint77_linear_1_15231)"/>
<path d="M8.68626 4.32281C8.06173 4.72981 7.52885 5.26587 7.12532 5.89304C7.03455 6.03404 6.82514 6.03369 6.73491 5.89234C6.33367 5.26375 5.80273 4.72575 5.17967 4.31646C5.04138 4.22563 5.04173 4.01905 5.18038 3.92869C5.80491 3.52169 6.33779 2.98563 6.74132 2.35846C6.83208 2.21746 7.04149 2.21781 7.13173 2.35917C7.53296 2.98775 8.0639 3.52575 8.68696 3.93505C8.82525 4.02593 8.8249 4.23246 8.68626 4.32281Z" fill="url(#paint78_linear_1_15231)"/>
<path d="M25.6491 5.77203C25.0246 6.17903 24.4917 6.71509 24.0882 7.34226C23.9974 7.48326 23.788 7.48291 23.6978 7.34156C23.2966 6.71297 22.7656 6.17497 22.1426 5.76568C22.0043 5.67485 22.0046 5.46826 22.1433 5.37791C22.7678 4.97091 23.3007 4.43485 23.7042 3.80768C23.795 3.66668 24.0044 3.66703 24.0946 3.80838C24.4959 4.43697 25.0268 4.97497 25.6499 5.38426C25.7881 5.47515 25.7878 5.68168 25.6491 5.77203Z" fill="url(#paint79_linear_1_15231)"/>
<defs>
<linearGradient id="paint0_linear_1_15231" x1="18.0518" y1="22.8649" x2="18.0518" y2="25.6105" gradientUnits="userSpaceOnUse">
<stop stop-color="#E4F2FF"/>
<stop offset="1" stop-color="#B2CBFF"/>
</linearGradient>
<linearGradient id="paint1_linear_1_15231" x1="16.3362" y1="22.9047" x2="16.3362" y2="27.5222" gradientUnits="userSpaceOnUse">
<stop stop-color="#3F3CED" stop-opacity="0.01"/>
<stop offset="0.2796" stop-color="#3C3DE4" stop-opacity="0.28"/>
<stop offset="0.7305" stop-color="#3541CC" stop-opacity="0.731"/>
<stop offset="1" stop-color="#2F43BB"/>
</linearGradient>
<linearGradient id="paint2_linear_1_15231" x1="21.4997" y1="22.9047" x2="21.4997" y2="27.5222" gradientUnits="userSpaceOnUse">
<stop stop-color="#3F3CED" stop-opacity="0.01"/>
<stop offset="0.2796" stop-color="#3C3DE4" stop-opacity="0.28"/>
<stop offset="0.7305" stop-color="#3541CC" stop-opacity="0.731"/>
<stop offset="1" stop-color="#2F43BB"/>
</linearGradient>
<linearGradient id="paint3_linear_1_15231" x1="31.2687" y1="23.5385" x2="31.2273" y2="20.8747" gradientUnits="userSpaceOnUse">
<stop stop-color="white" stop-opacity="0.01"/>
<stop offset="1" stop-color="white"/>
</linearGradient>
<linearGradient id="paint4_linear_1_15231" x1="18.0518" y1="20.7477" x2="18.0518" y2="23.4933" gradientUnits="userSpaceOnUse">
<stop stop-color="#E4F2FF"/>
<stop offset="1" stop-color="#B2CBFF"/>
</linearGradient>
<linearGradient id="paint5_linear_1_15231" x1="16.3363" y1="20.7876" x2="16.3363" y2="25.405" gradientUnits="userSpaceOnUse">
<stop stop-color="#3F3CED" stop-opacity="0.01"/>
<stop offset="0.2796" stop-color="#3C3DE4" stop-opacity="0.28"/>
<stop offset="0.7305" stop-color="#3541CC" stop-opacity="0.731"/>
<stop offset="1" stop-color="#2F43BB"/>
</linearGradient>
<linearGradient id="paint6_linear_1_15231" x1="21.4998" y1="20.7876" x2="21.4998" y2="25.405" gradientUnits="userSpaceOnUse">
<stop stop-color="#3F3CED" stop-opacity="0.01"/>
<stop offset="0.2796" stop-color="#3C3DE4" stop-opacity="0.28"/>
<stop offset="0.7305" stop-color="#3541CC" stop-opacity="0.731"/>
<stop offset="1" stop-color="#2F43BB"/>
</linearGradient>
<linearGradient id="paint7_linear_1_15231" x1="31.2687" y1="21.4203" x2="31.2273" y2="18.7565" gradientUnits="userSpaceOnUse">
<stop stop-color="white" stop-opacity="0.01"/>
<stop offset="1" stop-color="white"/>
</linearGradient>
<linearGradient id="paint8_linear_1_15231" x1="18.0518" y1="18.6296" x2="18.0518" y2="21.3752" gradientUnits="userSpaceOnUse">
<stop stop-color="#E4F2FF"/>
<stop offset="1" stop-color="#B2CBFF"/>
</linearGradient>
<linearGradient id="paint9_linear_1_15231" x1="16.3363" y1="18.6694" x2="16.3363" y2="23.2869" gradientUnits="userSpaceOnUse">
<stop stop-color="#3F3CED" stop-opacity="0.01"/>
<stop offset="0.2796" stop-color="#3C3DE4" stop-opacity="0.28"/>
<stop offset="0.7305" stop-color="#3541CC" stop-opacity="0.731"/>
<stop offset="1" stop-color="#2F43BB"/>
</linearGradient>
<linearGradient id="paint10_linear_1_15231" x1="21.4998" y1="18.6694" x2="21.4998" y2="23.2869" gradientUnits="userSpaceOnUse">
<stop stop-color="#3F3CED" stop-opacity="0.01"/>
<stop offset="0.2796" stop-color="#3C3DE4" stop-opacity="0.28"/>
<stop offset="0.7305" stop-color="#3541CC" stop-opacity="0.731"/>
<stop offset="1" stop-color="#2F43BB"/>
</linearGradient>
<linearGradient id="paint11_linear_1_15231" x1="31.2687" y1="19.3032" x2="31.2273" y2="16.6393" gradientUnits="userSpaceOnUse">
<stop stop-color="white" stop-opacity="0.01"/>
<stop offset="1" stop-color="white"/>
</linearGradient>
<linearGradient id="paint12_linear_1_15231" x1="18.0518" y1="16.5124" x2="18.0518" y2="19.258" gradientUnits="userSpaceOnUse">
<stop stop-color="#E4F2FF"/>
<stop offset="1" stop-color="#B2CBFF"/>
</linearGradient>
<linearGradient id="paint13_linear_1_15231" x1="16.3363" y1="16.5522" x2="16.3363" y2="21.1697" gradientUnits="userSpaceOnUse">
<stop stop-color="#3F3CED" stop-opacity="0.01"/>
<stop offset="0.2796" stop-color="#3C3DE4" stop-opacity="0.28"/>
<stop offset="0.7305" stop-color="#3541CC" stop-opacity="0.731"/>
<stop offset="1" stop-color="#2F43BB"/>
</linearGradient>
<linearGradient id="paint14_linear_1_15231" x1="21.4998" y1="16.5522" x2="21.4998" y2="21.1697" gradientUnits="userSpaceOnUse">
<stop stop-color="#3F3CED" stop-opacity="0.01"/>
<stop offset="0.2796" stop-color="#3C3DE4" stop-opacity="0.28"/>
<stop offset="0.7305" stop-color="#3541CC" stop-opacity="0.731"/>
<stop offset="1" stop-color="#2F43BB"/>
</linearGradient>
<linearGradient id="paint15_linear_1_15231" x1="31.2686" y1="17.185" x2="31.2272" y2="14.5212" gradientUnits="userSpaceOnUse">
<stop stop-color="white" stop-opacity="0.01"/>
<stop offset="1" stop-color="white"/>
</linearGradient>
<linearGradient id="paint16_linear_1_15231" x1="18.0518" y1="14.3942" x2="18.0518" y2="17.1398" gradientUnits="userSpaceOnUse">
<stop stop-color="#E4F2FF"/>
<stop offset="1" stop-color="#B2CBFF"/>
</linearGradient>
<linearGradient id="paint17_linear_1_15231" x1="16.3363" y1="14.4341" x2="16.3363" y2="19.0515" gradientUnits="userSpaceOnUse">
<stop stop-color="#3F3CED" stop-opacity="0.01"/>
<stop offset="0.2796" stop-color="#3C3DE4" stop-opacity="0.28"/>
<stop offset="0.7305" stop-color="#3541CC" stop-opacity="0.731"/>
<stop offset="1" stop-color="#2F43BB"/>
</linearGradient>
<linearGradient id="paint18_linear_1_15231" x1="21.4998" y1="14.4341" x2="21.4998" y2="19.0515" gradientUnits="userSpaceOnUse">
<stop stop-color="#3F3CED" stop-opacity="0.01"/>
<stop offset="0.2796" stop-color="#3C3DE4" stop-opacity="0.28"/>
<stop offset="0.7305" stop-color="#3541CC" stop-opacity="0.731"/>
<stop offset="1" stop-color="#2F43BB"/>
</linearGradient>
<linearGradient id="paint19_linear_1_15231" x1="31.2686" y1="15.0678" x2="31.2272" y2="12.404" gradientUnits="userSpaceOnUse">
<stop stop-color="white" stop-opacity="0.01"/>
<stop offset="1" stop-color="white"/>
</linearGradient>
<linearGradient id="paint20_linear_1_15231" x1="18.0517" y1="12.277" x2="18.0517" y2="15.0227" gradientUnits="userSpaceOnUse">
<stop stop-color="#E4F2FF"/>
<stop offset="1" stop-color="#B2CBFF"/>
</linearGradient>
<linearGradient id="paint21_linear_1_15231" x1="16.3362" y1="12.3169" x2="16.3362" y2="16.9344" gradientUnits="userSpaceOnUse">
<stop stop-color="#3F3CED" stop-opacity="0.01"/>
<stop offset="0.2796" stop-color="#3C3DE4" stop-opacity="0.28"/>
<stop offset="0.7305" stop-color="#3541CC" stop-opacity="0.731"/>
<stop offset="1" stop-color="#2F43BB"/>
</linearGradient>
<linearGradient id="paint22_linear_1_15231" x1="21.4997" y1="12.3169" x2="21.4997" y2="16.9344" gradientUnits="userSpaceOnUse">
<stop stop-color="#3F3CED" stop-opacity="0.01"/>
<stop offset="0.2796" stop-color="#3C3DE4" stop-opacity="0.28"/>
<stop offset="0.7305" stop-color="#3541CC" stop-opacity="0.731"/>
<stop offset="1" stop-color="#2F43BB"/>
</linearGradient>
<linearGradient id="paint23_linear_1_15231" x1="31.2686" y1="12.9506" x2="31.2272" y2="10.2868" gradientUnits="userSpaceOnUse">
<stop stop-color="white" stop-opacity="0.01"/>
<stop offset="1" stop-color="white"/>
</linearGradient>
<linearGradient id="paint24_linear_1_15231" x1="18.0518" y1="10.1589" x2="18.0518" y2="12.9045" gradientUnits="userSpaceOnUse">
<stop stop-color="#E4F2FF"/>
<stop offset="1" stop-color="#B2CBFF"/>
</linearGradient>
<linearGradient id="paint25_linear_1_15231" x1="16.3365" y1="10.1987" x2="16.3365" y2="14.8162" gradientUnits="userSpaceOnUse">
<stop stop-color="#3F3CED" stop-opacity="0.01"/>
<stop offset="0.2796" stop-color="#3C3DE4" stop-opacity="0.28"/>
<stop offset="0.7305" stop-color="#3541CC" stop-opacity="0.731"/>
<stop offset="1" stop-color="#2F43BB"/>
</linearGradient>
<linearGradient id="paint26_linear_1_15231" x1="21.4997" y1="10.1986" x2="21.4997" y2="14.8162" gradientUnits="userSpaceOnUse">
<stop stop-color="#3F3CED" stop-opacity="0.01"/>
<stop offset="0.2796" stop-color="#3C3DE4" stop-opacity="0.28"/>
<stop offset="0.7305" stop-color="#3541CC" stop-opacity="0.731"/>
<stop offset="1" stop-color="#2F43BB"/>
</linearGradient>
<linearGradient id="paint27_linear_1_15231" x1="31.2687" y1="10.8325" x2="31.2273" y2="8.16867" gradientUnits="userSpaceOnUse">
<stop stop-color="white" stop-opacity="0.01"/>
<stop offset="1" stop-color="white"/>
</linearGradient>
<linearGradient id="paint28_linear_1_15231" x1="18.0518" y1="8.04169" x2="18.0518" y2="10.7873" gradientUnits="userSpaceOnUse">
<stop stop-color="#E4F2FF"/>
<stop offset="1" stop-color="#B2CBFF"/>
</linearGradient>
<linearGradient id="paint29_linear_1_15231" x1="16.3363" y1="8.08152" x2="16.3363" y2="12.699" gradientUnits="userSpaceOnUse">
<stop stop-color="#3F3CED" stop-opacity="0.01"/>
<stop offset="0.2796" stop-color="#3C3DE4" stop-opacity="0.28"/>
<stop offset="0.7305" stop-color="#3541CC" stop-opacity="0.731"/>
<stop offset="1" stop-color="#2F43BB"/>
</linearGradient>
<linearGradient id="paint30_linear_1_15231" x1="21.4998" y1="8.08152" x2="21.4998" y2="12.699" gradientUnits="userSpaceOnUse">
<stop stop-color="#3F3CED" stop-opacity="0.01"/>
<stop offset="0.2796" stop-color="#3C3DE4" stop-opacity="0.28"/>
<stop offset="0.7305" stop-color="#3541CC" stop-opacity="0.731"/>
<stop offset="1" stop-color="#2F43BB"/>
</linearGradient>
<linearGradient id="paint31_linear_1_15231" x1="31.2687" y1="8.71527" x2="31.2273" y2="6.05143" gradientUnits="userSpaceOnUse">
<stop stop-color="white" stop-opacity="0.01"/>
<stop offset="1" stop-color="white"/>
</linearGradient>
<radialGradient id="paint32_radial_1_15231" cx="0" cy="0" r="1" gradientUnits="userSpaceOnUse" gradientTransform="translate(11.3752 12.1779) scale(19.8574 20.3433)">
<stop stop-color="#4AB272"/>
<stop offset="0.3386" stop-color="#47B071"/>
<stop offset="0.5502" stop-color="#3FA870"/>
<stop offset="0.727" stop-color="#309B6D"/>
<stop offset="0.8837" stop-color="#1C8869"/>
<stop offset="1" stop-color="#077565"/>
</radialGradient>
<linearGradient id="paint33_linear_1_15231" x1="-2.29948" y1="21.0472" x2="-2.9356" y2="40.8738" gradientUnits="userSpaceOnUse">
<stop stop-color="#005A01" stop-opacity="0.01"/>
<stop offset="1" stop-color="#005A01"/>
</linearGradient>
<linearGradient id="paint34_linear_1_15231" x1="8.00785" y1="26.6856" x2="10.8354" y2="37.4772" gradientUnits="userSpaceOnUse">
<stop stop-color="#005A01" stop-opacity="0.01"/>
<stop offset="1" stop-color="#005A01"/>
</linearGradient>
<linearGradient id="paint35_linear_1_15231" x1="15.5089" y1="24.5414" x2="14.4722" y2="37.8306" gradientUnits="userSpaceOnUse">
<stop stop-color="#005A01" stop-opacity="0.01"/>
<stop offset="1" stop-color="#005A01"/>
</linearGradient>
<linearGradient id="paint36_linear_1_15231" x1="25.1109" y1="10.4861" x2="11.3127" y2="-12.9651" gradientUnits="userSpaceOnUse">
<stop stop-color="#91F27F" stop-opacity="0.01"/>
<stop offset="1" stop-color="#FFED82"/>
</linearGradient>
<linearGradient id="paint37_linear_1_15231" x1="26.8365" y1="11.9628" x2="9.0598" y2="4.7406" gradientUnits="userSpaceOnUse">
<stop stop-color="#005A01" stop-opacity="0.01"/>
<stop offset="1" stop-color="#005A01"/>
</linearGradient>
<linearGradient id="paint38_linear_1_15231" x1="10.5996" y1="22.1468" x2="21.2628" y2="25.4426" gradientUnits="userSpaceOnUse">
<stop stop-color="#FFC738"/>
<stop offset="0.1876" stop-color="#FDBF3C"/>
<stop offset="0.4837" stop-color="#F7A848"/>
<stop offset="0.8493" stop-color="#ED835B"/>
<stop offset="1" stop-color="#E97264"/>
</linearGradient>
<linearGradient id="paint39_linear_1_15231" x1="8.8328" y1="0.126973" x2="10.2405" y2="7.04717" gradientUnits="userSpaceOnUse">
<stop stop-color="#4AB272"/>
<stop offset="0.3386" stop-color="#47B071"/>
<stop offset="0.5502" stop-color="#3FA870"/>
<stop offset="0.727" stop-color="#309B6D"/>
<stop offset="0.8837" stop-color="#1C8869"/>
<stop offset="1" stop-color="#077565"/>
</linearGradient>
<linearGradient id="paint40_linear_1_15231" x1="13.2168" y1="6.71171" x2="19.0732" y2="9.04795" gradientUnits="userSpaceOnUse">
<stop stop-color="#005A01" stop-opacity="0.01"/>
<stop offset="1" stop-color="#005A01"/>
</linearGradient>
<linearGradient id="paint41_linear_1_15231" x1="9.28949" y1="0.238442" x2="9.29639" y2="2.32435" gradientUnits="userSpaceOnUse">
<stop stop-color="#005A01" stop-opacity="0.01"/>
<stop offset="1" stop-color="#005A01"/>
</linearGradient>
<linearGradient id="paint42_linear_1_15231" x1="14.2478" y1="-0.206835" x2="6.22835" y2="-0.460767" gradientUnits="userSpaceOnUse">
<stop stop-color="#91F27F" stop-opacity="0.01"/>
<stop offset="1" stop-color="#FFED82"/>
</linearGradient>
<linearGradient id="paint43_linear_1_15231" x1="12.0373" y1="5.15638" x2="12.0373" y2="6.15602" gradientUnits="userSpaceOnUse">
<stop stop-color="#FFC738"/>
<stop offset="0.1876" stop-color="#FDBF3C"/>
<stop offset="0.4837" stop-color="#F7A848"/>
<stop offset="0.8493" stop-color="#ED835B"/>
<stop offset="1" stop-color="#E97264"/>
</linearGradient>
<linearGradient id="paint44_linear_1_15231" x1="14.4828" y1="21.3988" x2="8.32447" y2="20.4692" gradientUnits="userSpaceOnUse">
<stop stop-color="#005A01" stop-opacity="0.01"/>
<stop offset="1" stop-color="#005A01"/>
</linearGradient>
<linearGradient id="paint45_linear_1_15231" x1="-1.46383" y1="27.9255" x2="-1.46383" y2="30.6711" gradientUnits="userSpaceOnUse">
<stop stop-color="#FFD945"/>
<stop offset="0.3043" stop-color="#FFCD3E"/>
<stop offset="0.8558" stop-color="#FFAD2B"/>
<stop offset="1" stop-color="#FFA325"/>
</linearGradient>
<linearGradient id="paint46_linear_1_15231" x1="-3.17928" y1="27.9663" x2="-3.17928" y2="32.5837" gradientUnits="userSpaceOnUse">
<stop stop-color="#E87264" stop-opacity="0.01"/>
<stop offset="1" stop-color="#FF7044"/>
</linearGradient>
<linearGradient id="paint47_linear_1_15231" x1="1.98611" y1="27.9663" x2="1.98611" y2="32.5837" gradientUnits="userSpaceOnUse">
<stop stop-color="#E87264" stop-opacity="0.01"/>
<stop offset="1" stop-color="#FF7044"/>
</linearGradient>
<linearGradient id="paint48_linear_1_15231" x1="11.7531" y1="28.5991" x2="11.7117" y2="25.9352" gradientUnits="userSpaceOnUse">
<stop stop-color="#FFD945" stop-opacity="0.01"/>
<stop offset="1" stop-color="#FBED21"/>
</linearGradient>
<linearGradient id="paint49_linear_1_15231" x1="-1.46383" y1="25.8083" x2="-1.46383" y2="28.5539" gradientUnits="userSpaceOnUse">
<stop stop-color="#FFD945"/>
<stop offset="0.3043" stop-color="#FFCD3E"/>
<stop offset="0.8558" stop-color="#FFAD2B"/>
<stop offset="1" stop-color="#FFA325"/>
</linearGradient>
<linearGradient id="paint50_linear_1_15231" x1="-3.17906" y1="25.8482" x2="-3.17906" y2="30.4656" gradientUnits="userSpaceOnUse">
<stop stop-color="#E87264" stop-opacity="0.01"/>
<stop offset="1" stop-color="#FF7044"/>
</linearGradient>
<linearGradient id="paint51_linear_1_15231" x1="1.98611" y1="25.8481" x2="1.98611" y2="30.4656" gradientUnits="userSpaceOnUse">
<stop stop-color="#E87264" stop-opacity="0.01"/>
<stop offset="1" stop-color="#FF7044"/>
</linearGradient>
<linearGradient id="paint52_linear_1_15231" x1="11.753" y1="26.4819" x2="11.7116" y2="23.8181" gradientUnits="userSpaceOnUse">
<stop stop-color="#FFD945" stop-opacity="0.01"/>
<stop offset="1" stop-color="#FBED21"/>
</linearGradient>
<linearGradient id="paint53_linear_1_15231" x1="-1.46383" y1="23.6911" x2="-1.46383" y2="26.4367" gradientUnits="userSpaceOnUse">
<stop stop-color="#FFD945"/>
<stop offset="0.3043" stop-color="#FFCD3E"/>
<stop offset="0.8558" stop-color="#FFAD2B"/>
<stop offset="1" stop-color="#FFA325"/>
</linearGradient>
<linearGradient id="paint54_linear_1_15231" x1="-3.17928" y1="23.7309" x2="-3.17928" y2="28.3484" gradientUnits="userSpaceOnUse">
<stop stop-color="#E87264" stop-opacity="0.01"/>
<stop offset="1" stop-color="#FF7044"/>
</linearGradient>
<linearGradient id="paint55_linear_1_15231" x1="1.98611" y1="23.7309" x2="1.98611" y2="28.3484" gradientUnits="userSpaceOnUse">
<stop stop-color="#E87264" stop-opacity="0.01"/>
<stop offset="1" stop-color="#FF7044"/>
</linearGradient>
<linearGradient id="paint56_linear_1_15231" x1="11.753" y1="24.3637" x2="11.7116" y2="21.6999" gradientUnits="userSpaceOnUse">
<stop stop-color="#FFD945" stop-opacity="0.01"/>
<stop offset="1" stop-color="#FBED21"/>
</linearGradient>
<linearGradient id="paint57_linear_1_15231" x1="-1.46397" y1="21.5729" x2="-1.46397" y2="24.3186" gradientUnits="userSpaceOnUse">
<stop stop-color="#FFD945"/>
<stop offset="0.3043" stop-color="#FFCD3E"/>
<stop offset="0.8558" stop-color="#FFAD2B"/>
<stop offset="1" stop-color="#FFA325"/>
</linearGradient>
<linearGradient id="paint58_linear_1_15231" x1="-3.17916" y1="21.6128" x2="-3.17916" y2="26.2303" gradientUnits="userSpaceOnUse">
<stop stop-color="#E87264" stop-opacity="0.01"/>
<stop offset="1" stop-color="#FF7044"/>
</linearGradient>
<linearGradient id="paint59_linear_1_15231" x1="1.98608" y1="21.6128" x2="1.98608" y2="26.2303" gradientUnits="userSpaceOnUse">
<stop stop-color="#E87264" stop-opacity="0.01"/>
<stop offset="1" stop-color="#FF7044"/>
</linearGradient>
<linearGradient id="paint60_linear_1_15231" x1="11.753" y1="22.2465" x2="11.7116" y2="19.5827" gradientUnits="userSpaceOnUse">
<stop stop-color="#FFD945" stop-opacity="0.01"/>
<stop offset="1" stop-color="#FBED21"/>
</linearGradient>
<linearGradient id="paint61_linear_1_15231" x1="-1.46383" y1="19.4558" x2="-1.46383" y2="22.2013" gradientUnits="userSpaceOnUse">
<stop stop-color="#FFD945"/>
<stop offset="0.3043" stop-color="#FFCD3E"/>
<stop offset="0.8558" stop-color="#FFAD2B"/>
<stop offset="1" stop-color="#FFA325"/>
</linearGradient>
<linearGradient id="paint62_linear_1_15231" x1="-3.17939" y1="19.4955" x2="-3.17939" y2="24.113" gradientUnits="userSpaceOnUse">
<stop stop-color="#E87264" stop-opacity="0.01"/>
<stop offset="1" stop-color="#FF7044"/>
</linearGradient>
<linearGradient id="paint63_linear_1_15231" x1="1.98608" y1="19.4955" x2="1.98608" y2="24.113" gradientUnits="userSpaceOnUse">
<stop stop-color="#E87264" stop-opacity="0.01"/>
<stop offset="1" stop-color="#FF7044"/>
</linearGradient>
<linearGradient id="paint64_linear_1_15231" x1="11.7531" y1="20.1284" x2="11.7117" y2="17.4646" gradientUnits="userSpaceOnUse">
<stop stop-color="#FFD945" stop-opacity="0.01"/>
<stop offset="1" stop-color="#FBED21"/>
</linearGradient>
<linearGradient id="paint65_linear_1_15231" x1="-1.46383" y1="17.3376" x2="-1.46383" y2="20.0832" gradientUnits="userSpaceOnUse">
<stop stop-color="#FFD945"/>
<stop offset="0.3043" stop-color="#FFCD3E"/>
<stop offset="0.8558" stop-color="#FFAD2B"/>
<stop offset="1" stop-color="#FFA325"/>
</linearGradient>
<linearGradient id="paint66_linear_1_15231" x1="-3.17916" y1="17.3774" x2="-3.17916" y2="21.9949" gradientUnits="userSpaceOnUse">
<stop stop-color="#E87264" stop-opacity="0.01"/>
<stop offset="1" stop-color="#FF7044"/>
</linearGradient>
<linearGradient id="paint67_linear_1_15231" x1="1.98608" y1="17.3774" x2="1.98608" y2="21.9949" gradientUnits="userSpaceOnUse">
<stop stop-color="#E87264" stop-opacity="0.01"/>
<stop offset="1" stop-color="#FF7044"/>
</linearGradient>
<linearGradient id="paint68_linear_1_15231" x1="11.7531" y1="18.0112" x2="11.7117" y2="15.3473" gradientUnits="userSpaceOnUse">
<stop stop-color="#FFD945" stop-opacity="0.01"/>
<stop offset="1" stop-color="#FBED21"/>
</linearGradient>
<linearGradient id="paint69_linear_1_15231" x1="15.8506" y1="27.9255" x2="15.8506" y2="30.6711" gradientUnits="userSpaceOnUse">
<stop stop-color="#FFD945"/>
<stop offset="0.3043" stop-color="#FFCD3E"/>
<stop offset="0.8558" stop-color="#FFAD2B"/>
<stop offset="1" stop-color="#FFA325"/>
</linearGradient>
<linearGradient id="paint70_linear_1_15231" x1="14.1352" y1="27.9663" x2="14.1352" y2="32.5837" gradientUnits="userSpaceOnUse">
<stop stop-color="#E87264" stop-opacity="0.01"/>
<stop offset="1" stop-color="#FF7044"/>
</linearGradient>
<linearGradient id="paint71_linear_1_15231" x1="19.3006" y1="27.9663" x2="19.3006" y2="32.5837" gradientUnits="userSpaceOnUse">
<stop stop-color="#E87264" stop-opacity="0.01"/>
<stop offset="1" stop-color="#FF7044"/>
</linearGradient>
<linearGradient id="paint72_linear_1_15231" x1="29.0676" y1="28.5991" x2="29.0262" y2="25.9352" gradientUnits="userSpaceOnUse">
<stop stop-color="#FFD945" stop-opacity="0.01"/>
<stop offset="1" stop-color="#FBED21"/>
</linearGradient>
<linearGradient id="paint73_linear_1_15231" x1="15.8506" y1="25.8083" x2="15.8506" y2="28.5539" gradientUnits="userSpaceOnUse">
<stop stop-color="#FFD945"/>
<stop offset="0.3043" stop-color="#FFCD3E"/>
<stop offset="0.8558" stop-color="#FFAD2B"/>
<stop offset="1" stop-color="#FFA325"/>
</linearGradient>
<linearGradient id="paint74_linear_1_15231" x1="14.1354" y1="25.8482" x2="14.1354" y2="30.4656" gradientUnits="userSpaceOnUse">
<stop stop-color="#E87264" stop-opacity="0.01"/>
<stop offset="1" stop-color="#FF7044"/>
</linearGradient>
<linearGradient id="paint75_linear_1_15231" x1="19.3006" y1="25.8481" x2="19.3006" y2="30.4656" gradientUnits="userSpaceOnUse">
<stop stop-color="#E87264" stop-opacity="0.01"/>
<stop offset="1" stop-color="#FF7044"/>
</linearGradient>
<linearGradient id="paint76_linear_1_15231" x1="29.0674" y1="26.4819" x2="29.026" y2="23.8181" gradientUnits="userSpaceOnUse">
<stop stop-color="#FFD945" stop-opacity="0.01"/>
<stop offset="1" stop-color="#FBED21"/>
</linearGradient>
<linearGradient id="paint77_linear_1_15231" x1="-0.0144138" y1="12.311" x2="2.79409" y2="16.0088" gradientUnits="userSpaceOnUse">
<stop stop-color="#FFD945"/>
<stop offset="0.3043" stop-color="#FFCD3E"/>
<stop offset="0.8558" stop-color="#FFAD2B"/>
<stop offset="1" stop-color="#FFA325"/>
</linearGradient>
<linearGradient id="paint78_linear_1_15231" x1="5.0227" y1="4.30745" x2="7.00881" y2="6.92234" gradientUnits="userSpaceOnUse">
<stop stop-color="#FFD945"/>
<stop offset="0.3043" stop-color="#FFCD3E"/>
<stop offset="0.8558" stop-color="#FFAD2B"/>
<stop offset="1" stop-color="#FFA325"/>
</linearGradient>
<linearGradient id="paint79_linear_1_15231" x1="21.9853" y1="5.7601" x2="23.9714" y2="8.37499" gradientUnits="userSpaceOnUse">
<stop stop-color="#FFD945"/>
<stop offset="0.3043" stop-color="#FFCD3E"/>
<stop offset="0.8558" stop-color="#FFAD2B"/>
<stop offset="1" stop-color="#FFA325"/>
</linearGradient>
</defs>
</svg>
