<svg width="30" height="30" viewBox="0 0 30 30" fill="none" xmlns="http://www.w3.org/2000/svg">
<path d="M0.09375 18.8018C0.862019 25.1029 6.25535 29.9998 12.7734 29.9998H16.5854C23.1034 29.9998 28.4967 25.1029 29.265 18.8018C28.5145 19.5347 27.2085 20.1873 25.3848 20.7314C22.5207 21.5857 18.7188 22.0562 14.6794 22.0562C10.64 22.0562 6.83805 21.5857 3.97401 20.7314C2.15029 20.1873 0.844263 19.5346 0.09375 18.8018Z" fill="#FFC502"/>
<path d="M23.7984 10.6455C24.6138 10.6455 25.3965 10.9207 26.027 11.4165C26.1539 9.91773 26.1001 8.30125 26.0203 7.10311L24.5644 6.12305C23.3964 6.50606 21.8954 7.05638 20.5703 7.72382C22.0214 8.01728 23.1691 9.18613 23.4115 10.6662C23.5401 10.6523 23.6693 10.6455 23.7984 10.6455Z" fill="#FFC502"/>
<path d="M25.0449 5.65718L26.3418 6.53026L27.4161 4.94083C27.5095 4.80269 27.6918 4.75673 27.8396 4.8341C28.5 5.20724 29.4059 4.55167 29.1857 3.82833C28.9536 3.06641 28.2775 3.03949 28.0095 3.11961C27.8186 3.18192 27.6031 3.03647 27.5893 2.83628C27.5633 2.55846 27.4161 2.31 27.1853 2.15474C26.7607 1.86878 26.1811 1.98263 25.8933 2.40852C25.6271 2.80243 25.6983 3.32993 26.059 3.63538C26.1865 3.7434 26.2122 3.93013 26.1186 4.06859L25.0449 5.65718Z" fill="#FFC502"/>
<path d="M11.8156 21.3174C13.0956 21.3915 14.3679 21.4161 15.6522 21.3911C15.5778 20.5831 15.2794 19.8026 14.7798 19.1162C14.0732 18.1456 11.9298 17.0872 8.88751 16.2041L7.69142 17.0713C7.65873 18.1285 7.66232 19.5803 7.83194 20.9023C9.07803 21.0949 10.425 21.2362 11.8156 21.3174Z" fill="#FFC502"/>
<path d="M7.63872 12.9648C7.24616 12.3887 6.28212 12.6677 6.26244 13.3631C6.25565 13.5635 6.04526 13.7164 5.85244 13.6608C5.43225 13.5408 4.96847 13.8414 4.90988 14.2743C4.79424 14.8831 5.5109 15.3839 6.04097 15.0598C6.18404 14.978 6.3693 15.016 6.46795 15.1518L7.42045 16.4602L8.44603 15.7166L7.49404 14.4089C7.39571 14.2738 7.41488 14.0864 7.53853 13.9739C7.82494 13.7135 7.86802 13.2797 7.63872 12.9648Z" fill="#FFC502"/>
<path d="M26.4113 16.1716C26.2829 16.0695 26.2498 15.8882 26.3338 15.7474C27.6695 13.6385 25.6244 10.7825 23.192 11.3642C23.0032 11.408 22.8056 11.2579 22.7979 11.0642C22.715 9.0009 20.3363 7.65295 18.5184 8.62878C18.3616 8.71244 18.1511 8.64244 18.0758 8.48148C16.8259 5.70256 12.5329 5.70301 11.2832 8.48148C11.208 8.64237 10.9974 8.71263 10.8406 8.62878C9.0226 7.65289 6.64408 9.00109 6.56113 11.0642C6.5535 11.2579 6.35593 11.408 6.16709 11.3642C3.73433 10.7823 1.68959 13.6391 3.02523 15.7474C3.10927 15.8882 3.07619 16.0695 2.94773 16.1716C2.02696 16.89 1.62318 18.1351 1.93946 19.2553C3.23055 19.899 5.04106 20.4232 7.15888 20.7926C7.0069 19.4795 7.00459 18.0773 7.0367 17.0458L6.09202 15.7481C4.01356 16.3172 3.50241 13.0509 5.67138 12.9802C5.98164 11.8966 7.52767 11.6431 8.16876 12.579C8.53504 13.082 8.52658 13.749 8.17831 14.235L9.17754 15.6076C11.4762 16.2819 14.3043 17.3509 15.3097 18.7319C15.888 19.5264 16.2291 20.4339 16.3076 21.3746C20.8958 21.2236 25.039 20.4422 27.4195 19.2553C27.7358 18.1349 27.3321 16.8901 26.4113 16.1716ZM10.7748 10.8519C10.6483 10.9813 10.4408 10.9837 10.3114 10.8574C10.182 10.731 10.1795 10.5237 10.3059 10.3942C10.7666 9.90199 11.6097 9.90212 12.0704 10.3942C12.1968 10.5237 12.1944 10.731 12.065 10.8574C11.9355 10.9838 11.7281 10.9813 11.6016 10.8519C11.3856 10.6212 10.9908 10.6212 10.7748 10.8519ZM11.7398 13.9472C11.4853 13.9472 11.279 13.7276 11.279 13.4567C11.279 13.1858 11.4853 12.9662 11.7398 12.9662C11.9943 12.9662 12.2006 13.1858 12.2006 13.4567C12.2006 13.7276 11.9943 13.9472 11.7398 13.9472ZM15.0164 16.6265C14.762 16.6265 14.5557 16.4069 14.5557 16.136C14.5557 15.8651 14.762 15.6455 15.0164 15.6455C15.2709 15.6455 15.4772 15.8651 15.4772 16.136C15.4773 16.4069 15.2709 16.6265 15.0164 16.6265ZM15.3348 11.4022C15.0815 11.4022 14.8761 11.168 14.8761 10.879C14.8761 10.5901 15.0815 10.3558 15.3348 10.3558C15.5882 10.3558 15.7936 10.59 15.7936 10.879C15.7936 11.168 15.5882 11.4022 15.3348 11.4022ZM18.4888 20.5242C18.3591 20.6503 18.1518 20.6478 18.0254 20.5181C17.8991 20.3885 17.9019 20.1811 18.0315 20.0549C18.2624 19.8396 18.2624 19.4466 18.0315 19.2312C17.9019 19.105 17.8991 18.8976 18.0254 18.768C18.1516 18.6385 18.359 18.6356 18.4888 18.7619C18.9821 19.2219 18.9821 20.0643 18.4888 20.5242ZM19.3809 14.9789C19.0673 14.9405 18.7647 15.1933 18.7477 15.5087C18.7348 15.6895 18.5745 15.8248 18.3965 15.8108C18.216 15.7972 18.0807 15.6401 18.0942 15.4597C18.1302 14.7864 18.7766 14.2458 19.4461 14.3271C19.6261 14.3451 19.7575 14.5056 19.7395 14.6856C19.7214 14.8656 19.5606 14.9968 19.3809 14.9789ZM22.4207 19.8702C22.2911 19.9963 22.0838 19.9937 21.9573 19.864C21.8311 19.7344 21.8339 19.5271 21.9635 19.4009C22.1945 19.1856 22.1944 18.7924 21.9635 18.5771C21.8338 18.4508 21.8311 18.2435 21.9573 18.1139C22.0836 17.9842 22.2911 17.9815 22.4207 18.1078C22.9141 18.5679 22.9141 19.4103 22.4207 19.8702ZM24.3816 16.3094C24.2852 16.4641 24.0813 16.5088 23.9302 16.4138C23.7766 16.318 23.7299 16.116 23.8257 15.9626C24.7413 14.6031 23.3274 12.5455 21.7101 13.0096C21.5163 13.0604 21.31 12.9023 21.3079 12.7021C21.3107 11.3722 19.5706 10.3894 18.4282 11.0645C18.2691 11.1506 18.0702 11.0912 17.9841 10.9321C17.8981 10.7729 17.9574 10.5742 18.1166 10.4883C19.5408 9.65019 21.6675 10.6892 21.9219 12.3128C23.9603 12.04 25.5301 14.6174 24.3816 16.3094Z" fill="#FFC502"/>
<path d="M2.08013 15.1816C0.734808 15.825 0 16.5532 0 17.2522C0 17.7739 0.418205 18.3198 1.19622 18.8311C1.08212 17.7127 1.50641 16.5952 2.32936 15.8389C2.22455 15.628 2.14122 15.4084 2.08013 15.1816Z" fill="#FFC502"/>
<path d="M27.0298 15.8388C27.8527 16.595 28.2771 17.7127 28.1629 18.8311C28.9409 18.3198 29.3591 17.7738 29.3591 17.2522C29.3591 16.5531 28.6243 15.825 27.279 15.1816C27.2179 15.4083 27.1346 15.6279 27.0298 15.8388Z" fill="#FFC502"/>
<path d="M10.6221 5.69155C10.3908 5.69623 10.2227 5.43937 10.3236 5.22924C10.6226 4.672 10.854 3.9754 10.4673 3.3995C9.99616 2.66007 10.1199 1.75636 10.558 1.03302C10.6381 0.870715 10.8346 0.804497 10.9969 0.884561C11.1591 0.964753 11.2256 1.16123 11.1454 1.32328C10.8269 1.84975 10.6687 2.51052 11.0274 3.05943C11.5227 3.82059 11.3376 4.74847 10.921 5.49867C10.8663 5.61982 10.7469 5.69155 10.6221 5.69155Z" fill="#FFC502"/>
<path d="M18.4858 5.69155C18.2546 5.69623 18.0865 5.43937 18.1874 5.22924C18.4864 4.672 18.7178 3.9754 18.3311 3.3995C17.8599 2.66007 17.9836 1.75636 18.4217 1.03302C18.5019 0.870715 18.6984 0.804497 18.8607 0.884561C19.0229 0.964753 19.0894 1.16123 19.0092 1.32328C18.6907 1.84975 18.5325 2.51052 18.8912 3.05943C19.3865 3.82059 19.2014 4.74847 18.7847 5.49867C18.73 5.61982 18.6107 5.69155 18.4858 5.69155Z" fill="#FFC502"/>
<path d="M14.5542 4.84095C14.323 4.84563 14.1548 4.58877 14.2557 4.37864C14.5548 3.8214 14.7862 3.1248 14.3994 2.5489C13.9283 1.80948 14.052 0.905759 14.4901 0.182425C14.5703 0.0201813 14.7667 -0.0461007 14.9291 0.0339634C15.0912 0.114156 15.1578 0.31063 15.0775 0.472681C14.7591 0.999156 14.6009 1.65993 14.9596 2.20884C15.4548 2.96999 15.2698 3.89788 14.8531 4.64807C14.7984 4.76922 14.6791 4.84095 14.5542 4.84095Z" fill="#FFC502"/>
</svg>
