<svg width="24" height="24" viewBox="0 0 24 24" fill="none" xmlns="http://www.w3.org/2000/svg">
<path d="M0.0761719 15.04C0.69087 20.0816 5.00612 23.9997 10.2212 23.9997H13.2713C18.4864 23.9997 22.8016 20.0816 23.4163 15.04C22.8158 15.6265 21.7709 16.1486 20.3117 16.5839C18.0202 17.2675 14.9782 17.6439 11.7463 17.6439C8.51428 17.6439 5.47233 17.2675 3.18079 16.5839C1.72162 16.1486 0.676663 15.6264 0.0761719 15.04Z" fill="white"/>
<path d="M19.0408 8.5198C19.6933 8.5198 20.3195 8.74004 20.8239 9.1367C20.9255 7.93752 20.8824 6.64417 20.8185 5.68552L19.6537 4.90137C18.7192 5.20782 17.5182 5.64813 16.458 6.18215C17.619 6.41696 18.5373 7.35216 18.7313 8.53637C18.8341 8.52529 18.9375 8.5198 19.0408 8.5198Z" fill="white"/>
<path d="M20.0386 4.52613L21.0763 5.22469L21.9358 3.95298C22.0105 3.84245 22.1563 3.80568 22.2746 3.86758C22.803 4.16614 23.5279 3.64161 23.3516 3.06286C23.166 2.45324 22.625 2.4317 22.4105 2.49581C22.2578 2.54566 22.0854 2.42929 22.0743 2.26911C22.0536 2.04683 21.9358 1.84803 21.7511 1.72381C21.4114 1.49501 20.9477 1.5861 20.7174 1.92686C20.5044 2.24203 20.5614 2.66409 20.8499 2.90848C20.9519 2.9949 20.9725 3.14431 20.8976 3.25509L20.0386 4.52613Z" fill="white"/>
<path d="M9.45282 17.059C10.477 17.1183 11.4949 17.1379 12.5225 17.1179C12.463 16.4714 12.2243 15.8469 11.8245 15.2977C11.2592 14.5212 9.54422 13.6744 7.11004 12.9678L6.15304 13.6617C6.12688 14.5075 6.12976 15.6691 6.26547 16.7268C7.26247 16.8809 8.34021 16.994 9.45282 17.059Z" fill="white"/>
<path d="M6.11225 10.3695C5.79816 9.90859 5.02682 10.1319 5.01108 10.6882C5.00564 10.8486 4.83731 10.9709 4.68303 10.9264C4.34683 10.8304 3.97576 11.0709 3.92888 11.4173C3.83635 11.9044 4.40976 12.3051 4.83387 12.0458C4.94835 11.9803 5.09657 12.0107 5.17551 12.1194L5.93761 13.1662L6.75818 12.5713L5.99649 11.525C5.91781 11.4168 5.93315 11.2669 6.03208 11.1769C6.26124 10.9686 6.29571 10.6215 6.11225 10.3695Z" fill="white"/>
<path d="M21.1321 12.9385C21.0294 12.8568 21.0028 12.7118 21.0701 12.5991C22.1388 10.9118 20.5025 8.62667 18.5563 9.09211C18.4052 9.12714 18.2471 9.00703 18.241 8.85203C18.1747 7.20119 16.2714 6.12269 14.8169 6.90346C14.6915 6.97039 14.523 6.91439 14.4628 6.7856C13.4627 4.56217 10.0279 4.56253 9.028 6.7856C8.96778 6.91433 8.7993 6.97055 8.67385 6.90346C7.21924 6.12264 5.31617 7.20135 5.2498 8.85203C5.24369 9.00703 5.08562 9.12714 4.93453 9.09211C2.98806 8.62651 1.35204 10.9123 2.4207 12.5991C2.48794 12.7118 2.46148 12.8568 2.35869 12.9385C1.62198 13.5133 1.29891 14.5095 1.55197 15.4058C2.58498 15.9209 4.03358 16.3403 5.72807 16.6358C5.60646 15.5852 5.60462 14.4633 5.63031 13.638L4.87447 12.5997C3.21147 13.0551 2.8025 10.4416 4.53791 10.3851C4.78615 9.51807 6.02313 9.31522 6.53607 10.064C6.82914 10.4665 6.82237 11.0002 6.54372 11.389L7.34321 12.4872C9.18238 13.0267 11.4452 13.8821 12.2496 14.9871C12.7123 15.6227 12.9852 16.3488 13.048 17.1014C16.7191 16.9807 20.0341 16.3554 21.9387 15.4058C22.1918 14.5094 21.8688 13.5134 21.1321 12.9385ZM8.62117 8.68216C8.51998 8.78571 8.35396 8.78766 8.25046 8.68657C8.14685 8.58548 8.14491 8.41956 8.24605 8.31601C8.61461 7.92216 9.28921 7.92227 9.65783 8.31601C9.75897 8.41956 9.75702 8.58543 9.65347 8.68657C9.54986 8.78771 9.38394 8.78577 9.2827 8.68216C9.10985 8.49757 8.79402 8.49757 8.62117 8.68216ZM9.39328 11.1588C9.18966 11.1588 9.02461 10.983 9.02461 10.7663C9.02461 10.5495 9.18966 10.3738 9.39328 10.3738C9.5969 10.3738 9.76194 10.5495 9.76194 10.7663C9.76194 10.983 9.5969 11.1588 9.39328 11.1588ZM12.015 13.3025C11.8113 13.3025 11.6463 13.1268 11.6463 12.91C11.6463 12.6933 11.8113 12.5175 12.015 12.5175C12.2186 12.5175 12.3836 12.6933 12.3836 12.91C12.3837 13.1268 12.2186 13.3025 12.015 13.3025ZM12.2697 9.12253C12.067 9.12253 11.9027 8.93507 11.9027 8.70391C11.9027 8.4727 12.067 8.28524 12.2697 8.28524C12.4724 8.28524 12.6367 8.47265 12.6367 8.70391C12.6367 8.93507 12.4724 9.12253 12.2697 9.12253ZM14.7932 16.4211C14.6895 16.522 14.5236 16.5199 14.4224 16.4162C14.3214 16.3125 14.3236 16.1465 14.4273 16.0456C14.6121 15.8733 14.6121 15.5589 14.4273 15.3865C14.3236 15.2856 14.3214 15.1196 14.4224 15.0159C14.5234 14.9123 14.6894 14.91 14.7932 15.011C15.1879 15.3791 15.1879 16.0531 14.7932 16.4211ZM15.507 11.9842C15.2561 11.9535 15.0139 12.1558 15.0004 12.4081C14.9901 12.5528 14.8618 12.6611 14.7193 12.6498C14.5749 12.6389 14.4667 12.5132 14.4775 12.3689C14.5063 11.8302 15.0235 11.3977 15.5591 11.4627C15.7032 11.4771 15.8083 11.6055 15.7939 11.7495C15.7794 11.8936 15.6507 11.9986 15.507 11.9842ZM17.9392 15.8978C17.8355 15.9987 17.6696 15.9966 17.5684 15.8929C17.4674 15.7892 17.4696 15.6232 17.5733 15.5223C17.7581 15.35 17.7581 15.0355 17.5733 14.8631C17.4696 14.7622 17.4674 14.5963 17.5684 14.4926C17.6694 14.3888 17.8354 14.3867 17.9391 14.4877C18.3339 14.8558 18.334 15.5298 17.9392 15.8978ZM19.5081 13.0487C19.431 13.1726 19.2678 13.2083 19.1469 13.1323C19.0241 13.0557 18.9867 12.894 19.0633 12.7713C19.7959 11.6835 18.6646 10.0372 17.3706 10.4085C17.2155 10.4492 17.0505 10.3227 17.0488 10.1626C17.051 9.09847 15.6587 8.31216 14.7447 8.85229C14.6174 8.92117 14.4583 8.87367 14.3894 8.74632C14.3206 8.61897 14.368 8.46003 14.4954 8.39125C15.6349 7.7207 17.3365 8.55204 17.5401 9.85104C19.171 9.6328 20.427 11.695 19.5081 13.0487Z" fill="white"/>
<path d="M1.66433 12.1445C0.587925 12.6593 0 13.2419 0 13.8012C0 14.2186 0.334609 14.6554 0.957103 15.0645C0.865808 14.1696 1.20529 13.2755 1.86374 12.6704C1.77988 12.5017 1.7132 12.3259 1.66433 12.1445Z" fill="white"/>
<path d="M21.6274 12.6703C22.2859 13.2754 22.6254 14.1697 22.5341 15.0645C23.1566 14.6554 23.4912 14.2186 23.4912 13.8012C23.4912 13.2419 22.9033 12.6593 21.8269 12.1445C21.778 12.3259 21.7113 12.5016 21.6274 12.6703Z" fill="white"/>
<path d="M8.49789 4.55395C8.31289 4.5577 8.17836 4.35218 8.25909 4.18406C8.49835 3.7382 8.68351 3.18085 8.37408 2.72007C7.99711 2.12845 8.09609 1.40538 8.4466 0.826633C8.51071 0.696769 8.66797 0.643788 8.79783 0.707847C8.92759 0.77201 8.98083 0.929211 8.91661 1.05887C8.66181 1.48011 8.53523 2.00879 8.82224 2.44798C9.2185 3.05698 9.07043 3.79939 8.73705 4.39963C8.6933 4.49656 8.5978 4.55395 8.49789 4.55395Z" fill="white"/>
<path d="M14.7913 4.55395C14.6063 4.5577 14.4718 4.35218 14.5525 4.18406C14.7918 3.7382 14.977 3.18085 14.6675 2.72007C14.2906 2.12845 14.3896 1.40538 14.7401 0.826633C14.8042 0.696769 14.9614 0.643788 15.0913 0.707847C15.221 0.77201 15.2743 0.929211 15.2101 1.05887C14.9553 1.48011 14.8287 2.00879 15.1157 2.44798C15.512 3.05698 15.3639 3.79939 15.0305 4.39963C14.9867 4.49656 14.8913 4.55395 14.7913 4.55395Z" fill="white"/>
<path d="M11.6449 3.87328C11.4599 3.87702 11.3253 3.67151 11.4061 3.50339C11.6453 3.05753 11.8305 2.50017 11.5211 2.03939C11.1441 1.44778 11.2431 0.724704 11.5936 0.14596C11.6577 0.0161472 11.8149 -0.0368855 11.9448 0.0271743C12.0746 0.0913368 12.1278 0.248537 12.0636 0.378196C11.8088 0.799432 11.6822 1.32812 11.9692 1.76731C12.3655 2.37631 12.2174 3.11872 11.884 3.71895C11.8402 3.81589 11.7448 3.87328 11.6449 3.87328Z" fill="white"/>
</svg>
