<svg width="30" height="30" viewBox="0 0 30 30" fill="none" xmlns="http://www.w3.org/2000/svg">
<path d="M29.9879 16.0257C29.9879 11.7442 28.0606 7.91277 25.0263 5.35168C22.5961 3.30038 15.7685 3.06543 15.7685 3.06543L10.8202 3.09397C10.7834 3.10954 10.7389 3.09874 10.7023 3.1146C5.85239 5.21925 2.70508 10.206 2.70508 16.0027C2.70508 23.7135 8.45408 28.9605 16.1649 28.9605C18.4831 28.9605 20.5306 29.4224 22.4548 28.4226C26.9306 26.0969 29.9879 21.4183 29.9879 16.0257Z" fill="#94CCD4"/>
<path d="M25.026 5.35119C23.6063 6.27976 22.0822 7.20109 21.5108 7.32599C19.9427 7.78454 17.9015 6.81313 17.4822 9.12581C17.4701 9.5723 17.4309 9.99646 17.3639 10.3923C17.2891 10.8339 17.125 11.2496 16.8867 11.6189C16.6483 11.9882 16.014 12.0959 15.6448 12.3493C14.6281 13.048 13.802 13.0899 12.7075 12.5197C12.6798 12.5052 12.6514 12.4902 12.6231 12.4751C10.7997 11.5815 9.72856 9.52644 11.6189 8.02468C12.8612 6.99897 12.6733 5.18967 11.8051 4.05897L11.2826 3.4544C11.6882 3.28685 11.5231 2.79807 11.9469 2.66877C13.2372 2.27514 14.6067 2.06348 16.0256 2.06348C19.4552 2.06348 22.5957 3.29976 25.026 5.35119Z" fill="#B7E546"/>
<path d="M26.8534 12.5692C26.8456 11.4167 26.3803 10.3138 25.5596 9.50408C24.8594 8.70294 24.6172 8.22562 23.6548 9.11009C22.7426 10.2447 23.6423 11.653 21.7035 13.5878C21.3602 13.9373 21.1675 14.4158 21.1869 14.9063C21.1862 14.9062 21.1865 14.8196 21.1858 14.8195C21.2555 16.0344 22.0853 17.0137 23.268 17.0137C24.7873 17.0136 26.8534 15.2302 26.8534 12.5692Z" fill="#B7E546"/>
<path d="M22.4829 13.4982C22.1396 13.8481 21.9465 14.3266 21.9659 14.8171C21.9653 14.8165 21.9653 14.8159 21.9646 14.8159C22.0226 15.8217 22.8944 16.6682 23.864 16.9301C23.6607 16.9856 23.4604 17.014 23.2685 17.014C22.0859 17.014 20.8279 16.0311 20.7579 14.8159C20.7585 14.8159 20.7585 14.8165 20.7591 14.8171C20.7398 14.3266 20.9329 13.8481 21.2762 13.4982C23.2148 11.5638 22.0914 10.0524 23.0036 8.91808C23.5533 8.41246 24.0812 8.41488 24.5627 8.65924C24.4463 8.7238 24.3292 8.80887 24.2104 8.91808C23.2981 10.0524 24.4215 11.5638 22.4829 13.4982Z" fill="#ABD641"/>
<path d="M28.1647 1.05588V8.02506L27.7206 8.44669C27.7206 9.02984 27.0577 9.11769 26.4745 9.11769L23.287 9.09373C23.1387 9.09373 22.9941 9.14055 22.874 9.22756L20.2437 11.054C20.011 11.2226 19.6852 11.0563 19.6852 10.769L19.9321 9.89053C19.9321 9.50172 19.6169 9.18659 19.2282 9.18659H18.3834C17.8003 9.18659 17.3275 8.71386 17.3275 8.13065L17.2002 1.59287C17.2002 1.00972 17.4318 0.394658 18.015 0.394658L18.3093 0H27.1088C27.692 -6.03361e-05 28.1647 0.472673 28.1647 1.05588Z" fill="#DC4955"/>
<path d="M28.1647 8.02512V8.37712C28.1647 8.96027 27.692 9.43306 27.1088 9.43306H23.3299C23.1814 9.43306 23.0371 9.48024 22.9174 9.56683L20.0642 11.6329C19.832 11.8019 19.506 11.6358 19.506 11.3478V10.137C19.506 9.7482 19.1908 9.43306 18.8021 9.43306H17.9573C17.3742 9.43306 16.9014 8.96033 16.9014 8.37712V1.05594C16.9014 0.472793 17.3741 0 17.9573 0H18.3093V7.88436C18.3093 7.96213 18.3724 8.02512 18.4501 8.02512H18.8021C19.6123 8.02512 20.3172 8.48337 20.6712 9.15491C20.7316 9.26937 20.8779 9.30551 20.9827 9.22955L22.0909 8.42635C22.4535 8.16377 22.8822 8.02512 23.3299 8.02512H28.1647Z" fill="#D82F3C"/>
<path d="M19.3437 28.767C11.4481 28.767 5.0471 22.3847 5.0471 14.512C5.0471 9.82333 7.19675 5.71233 10.7017 3.11426C5.63169 5.20701 2.06348 10.1995 2.06348 16.0253C2.06348 18.3993 2.65598 20.6349 3.70124 22.5924C3.70124 22.5924 7.01906 25.22 8.69676 26.4547C11.0111 28.158 15.5081 29.2567 15.5081 29.2567C15.5081 29.2567 20.5119 29.4265 22.4306 28.4333C21.4362 28.6518 20.4038 28.767 19.3437 28.767Z" fill="#6FBBC6"/>
<path d="M22.4536 28.4209C21.3317 26.8583 19.2683 25.1356 19.357 23.0607C19.3872 22.3533 19.2939 21.6436 19.061 20.9746C19.0573 20.9656 19.0544 20.9567 19.0514 20.9479C18.9336 20.6166 18.7567 20.31 18.5364 20.0368C17.9284 19.2814 16.6309 17.3105 15.9964 17.0342C14.7849 16.2849 13.1448 16.8429 12.4966 18.0732C11.9341 19.4963 11.7789 21.4463 10.3093 22.2139C9.43077 22.6903 8.16462 22.5832 7.49633 21.7944C6.33686 20.2884 4.71351 21.7446 3.70312 22.5919C4.1046 23.342 5.74267 23.8918 6.27242 24.5571C8.47046 27.3181 10.4267 28.3824 13.6475 28.9604C16.6433 29.504 19.7175 29.8422 22.421 28.4375C22.4319 28.4319 22.4428 28.4266 22.4536 28.4209Z" fill="#B7E546"/>
<path d="M22.4254 28.4341C20.0252 29.6829 17.2537 30.1922 14.5648 29.9099V29.9093C10.0204 29.4649 5.82641 26.6302 3.70312 22.5912C4.50197 21.9208 5.68517 20.8692 6.71872 21.2052C9.12311 25.7045 13.8752 28.7666 19.344 28.7666C20.4023 28.7666 21.4329 28.6519 22.4254 28.4341Z" fill="#ABD641"/>
<path d="M25.5388 16.3469V23.3161L25.0947 23.7377C25.0947 24.3209 24.4317 24.4087 23.8485 24.4087L20.661 24.3847C20.5127 24.3847 20.3682 24.4316 20.2481 24.5186L17.6178 26.345C17.385 26.5136 17.0593 26.3473 17.0593 26.06L17.3062 25.1815C17.3062 24.7927 16.991 24.4776 16.6022 24.4776H15.7575C15.1743 24.4776 14.7015 24.0049 14.7015 23.4217L14.5742 16.8839C14.5742 16.3007 14.8058 15.6857 15.389 15.6857L15.6833 15.291H24.4828C25.066 15.291 25.5388 15.7637 25.5388 16.3469Z" fill="#FFBF54"/>
<path d="M25.5387 23.3161V23.6681C25.5387 24.2513 25.066 24.7241 24.4828 24.7241H20.704C20.5554 24.7241 20.4111 24.7713 20.2914 24.8578L17.4383 26.9239C17.206 27.0929 16.88 26.9268 16.88 26.6388V25.428C16.88 25.0392 16.5648 24.7241 16.1761 24.7241H15.3313C14.7482 24.7241 14.2754 24.2513 14.2754 23.6681V16.347C14.2754 15.7638 14.7481 15.291 15.3313 15.291H15.6833V23.1754C15.6833 23.2531 15.7464 23.3161 15.8241 23.3161H16.1761C16.9864 23.3161 17.6913 23.7744 18.0452 24.4459C18.1056 24.5604 18.2519 24.5965 18.3567 24.5206L19.465 23.7174C19.8275 23.4548 20.2562 23.3161 20.7039 23.3161H25.5387Z" fill="#FFA442"/>
<path fill-rule="evenodd" clip-rule="evenodd" d="M25.7217 3.00166C25.7217 3.25157 25.5191 3.45418 25.2692 3.45418H24.3309C24.1136 4.4172 23.6839 5.30281 23.0854 6.05605C23.5434 6.4933 24.0792 6.85586 24.6767 7.12213L25.3002 7.39997C25.5285 7.5017 25.6311 7.76923 25.5293 7.99748C25.4543 8.16588 25.2889 8.26592 25.1157 8.26592C25.0542 8.26592 24.9917 8.25331 24.9318 8.22664L24.3084 7.94879C23.6206 7.64228 23.003 7.22615 22.4742 6.72439C21.9453 7.22615 21.3277 7.64228 20.6399 7.94879L20.0165 8.22664C19.9567 8.25331 19.8941 8.26592 19.8326 8.26592C19.6594 8.26592 19.494 8.16594 19.419 7.99748C19.3172 7.76923 19.4198 7.5017 19.6481 7.39997L20.2716 7.12213C20.8691 6.8558 21.4049 6.4933 21.8629 6.05605C21.2644 5.30281 20.8346 4.4172 20.6174 3.45418H19.6791C19.4292 3.45418 19.2266 3.25157 19.2266 3.00166C19.2266 2.75174 19.4292 2.54913 19.6791 2.54913H22.0216V1.77967C22.0216 1.52976 22.2242 1.32715 22.4742 1.32715C22.7241 1.32715 22.9267 1.52976 22.9267 1.77967V2.54913H25.2692C25.5191 2.54913 25.7217 2.75174 25.7217 3.00166ZM21.5488 3.45422C21.7336 4.15292 22.05 4.80008 22.4741 5.36645C22.8981 4.80008 23.2145 4.15292 23.3993 3.45422H21.5488Z" fill="#FAF8F8"/>
<path d="M23.3733 17.2256H21.2682C21.0182 17.2256 20.8156 17.4282 20.8156 17.6781C20.8156 17.928 21.0182 18.1306 21.2682 18.1306H21.8682V19.5485H20.0682C20.1734 19.3344 20.2325 19.0938 20.2325 18.8396C20.2325 17.9496 19.5085 17.2256 18.6186 17.2256H17.3119C17.062 17.2256 16.8594 17.4282 16.8594 17.6781C16.8594 17.928 17.062 18.1306 17.3119 18.1306H18.6186C19.0095 18.1306 19.3275 18.4487 19.3275 18.8396C19.3275 19.2305 19.0095 19.5485 18.6186 19.5485H17.1667C16.9168 19.5485 16.7142 19.7511 16.7142 20.001C16.7142 20.251 16.9168 20.4536 17.1667 20.4536H18.6186C19.0095 20.4536 19.3275 20.7716 19.3275 21.1625C19.3275 21.5601 19.0161 21.8715 18.6186 21.8715C17.9934 21.8715 17.2836 21.801 16.7607 21.2781C16.584 21.1014 16.2975 21.1014 16.1208 21.2781C15.9441 21.4548 15.9441 21.7414 16.1208 21.918C16.8817 22.6789 17.8554 22.7765 18.6186 22.7765C19.5085 22.7765 20.2325 22.0525 20.2325 21.1625C20.2325 20.9083 20.1734 20.6677 20.0682 20.4536H21.8682V22.324C21.8682 22.5739 22.0708 22.7765 22.3207 22.7765C22.5706 22.7765 22.7732 22.5739 22.7732 22.324V18.1306H23.3733C23.6232 18.1306 23.8258 17.928 23.8258 17.6781C23.8258 17.4282 23.6233 17.2256 23.3733 17.2256Z" fill="#FAF8F8"/>
<path d="M12.0775 8.80452L12.06 8.819C11.8271 9.00423 11.0186 9.74456 10.4454 10.3793C10.2149 9.50864 10.4152 8.58429 11.3094 7.87414C12.5517 6.84842 12.0932 4.85009 11.2249 3.7194L10.7021 3.11453C11.1075 2.94679 11.523 2.79806 11.9472 2.66895C12.3225 3.23912 12.6561 3.7194 12.6561 3.7194C13.5557 5.39493 13.5962 7.55134 12.0775 8.80452Z" fill="#ABD641"/>
<path d="M16.9372 11.5367C16.9209 11.5644 16.904 11.5916 16.8865 11.6187C16.6482 11.988 16.3368 12.3102 15.9676 12.5636C14.9509 13.2623 13.6326 13.3407 12.5381 12.7706C12.5103 12.7561 12.482 12.741 12.4536 12.7259C10.7377 11.8848 9.56412 9.66023 11.0068 8.14941C10.5476 9.53594 11.6318 11.1367 13.0914 11.8209C13.1209 11.8359 13.1505 11.851 13.1795 11.8655C14.3234 12.4357 15.7015 12.3573 16.764 11.6586C16.8232 11.6199 16.8811 11.5795 16.9372 11.5367Z" fill="#ABD641"/>
<path d="M14.4418 29.9309C14.4505 29.9319 14.4592 29.933 14.468 29.9339C14.4592 29.933 14.4505 29.932 14.4418 29.9309Z" fill="#94CCD4"/>
<path d="M10.0958 28.6881C10.1268 28.7027 10.158 28.7169 10.1889 28.7314C10.1578 28.7169 10.1268 28.7027 10.0958 28.6881Z" fill="#94CCD4"/>
<path d="M22.4305 28.4336C22.1813 28.5627 21.9285 28.684 21.6709 28.7974C21.9243 28.6852 22.1741 28.5651 22.4203 28.4372C22.4221 28.4366 22.4233 28.4354 22.4251 28.4348C22.4269 28.4342 22.4287 28.4342 22.4305 28.4336V28.4336Z" fill="#94CCD4"/>
<path d="M0.485352 8.26659L0.573925 14.3386C0.573925 14.9332 1.05842 15.4153 1.65611 15.4153L5.05334 15.5263C5.20532 15.5263 5.35345 15.5741 5.47653 15.6628L7.79507 17.6228C8.03358 17.7947 8.36741 17.6252 8.36741 17.3322L8.51391 16.3846C8.51391 15.9882 8.83689 15.6669 9.23535 15.6669L10.3566 15.6628C10.9543 15.6628 11.5428 15.5209 11.5428 14.9262V7.4614C11.5428 6.86679 11.0583 6.38477 10.4607 6.38477H1.08165C0.483964 6.38477 0.485352 7.67198 0.485352 8.26659Z" fill="#FAF8F8"/>
<path fill-rule="evenodd" clip-rule="evenodd" d="M6.29551 8.38203L6.29955 8.39234L8.33855 13.7462C8.42748 13.9798 8.31031 14.2412 8.07675 14.3301C8.02377 14.3503 7.96929 14.3599 7.91577 14.3599C7.73344 14.3599 7.5616 14.2489 7.49282 14.0683L7.09599 13.0263H4.44452L4.05179 14.067C3.96364 14.3008 3.7025 14.4188 3.46864 14.3306C3.23484 14.2423 3.11682 13.9812 3.20503 13.7474L5.22551 8.39343L5.23045 8.38094C5.31963 8.16433 5.52858 8.02441 5.76274 8.02441H5.76334C5.99781 8.02466 6.20669 8.165 6.29551 8.38203ZM5.76424 9.52954L4.78613 12.1214H6.7514L5.76424 9.52954Z" fill="#AAD8DE"/>
<path d="M11.5435 14.7952V14.9256C11.5435 15.5199 11.059 16.002 10.4611 16.002H9.59525C9.19703 16.002 8.87423 16.3236 8.87423 16.72V17.955C8.87423 18.2477 8.53997 18.4172 8.30164 18.2453L5.37836 16.1383C5.25527 16.0496 5.10684 16.002 4.9548 16.002H1.08243C0.484499 16.002 0 15.5199 0 14.9256V7.46079C0 6.86587 0.484499 6.38379 1.08243 6.38379H1.20672V14.4936C1.20672 14.6601 1.34181 14.7952 1.5084 14.7952H4.9548C5.36026 14.7952 5.75546 14.9232 6.08369 15.1597L7.4322 16.1317C7.56132 16.2246 7.74112 16.1679 7.79904 16.0201C8.08021 15.3039 8.7795 14.7952 9.59525 14.7952H11.5435Z" fill="#F0E9E6"/>
</svg>
