<svg width="15" height="15" viewBox="0 0 15 15" fill="none" xmlns="http://www.w3.org/2000/svg">
<path d="M7.49997 15C11.6342 15 14.9999 11.6343 14.9999 7.5C14.9999 3.36569 11.6342 0 7.49997 0C3.36569 0 0 3.36569 0 7.5C0 11.6343 3.36569 15 7.49997 15ZM6.60119 3.6756C6.60119 3.17975 7.00412 2.77689 7.49997 2.77689C7.99582 2.77689 8.39875 3.17975 8.39875 3.6756V8.59091C8.39875 9.08679 7.99582 9.48966 7.49997 9.48966C7.00412 9.48966 6.60119 9.08679 6.60119 8.59091V3.6756ZM7.49997 10.2087C7.99582 10.2087 8.39875 10.6115 8.39875 11.1075C8.39875 11.6033 7.99582 12.0062 7.49997 12.0062C7.00412 12.0062 6.60119 11.6033 6.60119 11.1075C6.60119 10.6115 7.00412 10.2087 7.49997 10.2087Z" fill="white"/>
</svg>
