<svg width="18" height="16" viewBox="0 0 18 16" fill="none" xmlns="http://www.w3.org/2000/svg">
<path d="M7.04009 14.8239C7.46597 15.2496 8.15647 15.2495 8.5822 14.8239C9.00821 14.3979 9.00821 13.7075 8.58205 13.2815L4.39164 9.09124L16.5262 9.09007C17.1285 9.08993 17.6166 8.60182 17.6166 7.99929C17.6164 7.39704 17.1283 6.90908 16.5261 6.90908L4.39106 6.91025L8.58249 2.71911C9.00836 2.29324 9.00836 1.60259 8.58249 1.17686C8.36948 0.964 8.09046 0.857422 7.81129 0.857422C7.53227 0.857422 7.25325 0.964 7.04024 1.17672L0.987411 7.2294C0.782834 7.43383 0.667969 7.71111 0.667969 8.00045C0.668114 8.2898 0.78298 8.56693 0.987556 8.77179L7.04009 14.8239Z" fill="white"/>
</svg>
