<svg width="23" height="20" viewBox="0 0 23 20" fill="none" xmlns="http://www.w3.org/2000/svg">
<path d="M22.2001 20C21.8756 20 21.594 19.7654 21.5397 19.4401C21.0562 16.6168 18.3224 11.6894 11.3877 11.4015V15.0238C11.3877 15.2748 11.2474 15.5048 11.0243 15.6196C10.801 15.7344 10.5324 15.7149 10.3282 15.5691L0.280568 8.39218C0.104482 8.26639 0 8.06328 0 7.8469C0 7.63048 0.104482 7.42741 0.280568 7.30167L10.3282 0.124822C10.5324 -0.0210678 10.8011 -0.0405884 11.0243 0.0742565C11.2474 0.189101 11.3877 0.419059 11.3877 0.670056V4.34701C15.6743 4.77459 22.8707 7.86874 22.8707 19.3299C22.8707 19.6786 22.6034 19.969 22.2559 19.9977C22.2372 19.9992 22.2186 20 22.2001 20Z" fill="black"/>
</svg>
