<svg width="40" height="40" viewBox="0 0 40 40" fill="none" xmlns="http://www.w3.org/2000/svg">
<path d="M20.3985 8.69922C17.9877 8.69922 15.6756 9.6569 13.971 11.3616C12.2663 13.0663 11.3086 15.3783 11.3086 17.7891C11.3086 25.1475 20.3985 32.0731 20.3985 32.0731C20.3985 32.0731 29.4883 25.1475 29.4883 17.7891C29.4883 15.3783 28.5306 13.0663 26.826 11.3616C25.1213 9.6569 22.8092 8.69922 20.3985 8.69922ZM20.3985 22.1176C19.5424 22.1176 18.7055 21.8637 17.9937 21.3881C17.2818 20.9125 16.727 20.2364 16.3994 19.4455C16.0718 18.6546 15.9861 17.7843 16.1531 16.9446C16.3201 16.105 16.7324 15.3337 17.3377 14.7284C17.9431 14.123 18.7144 13.7108 19.554 13.5437C20.3937 13.3767 21.264 13.4624 22.0549 13.7901C22.8458 14.1177 23.5219 14.6725 23.9975 15.3843C24.4731 16.0961 24.727 16.933 24.727 17.7891C24.727 18.9371 24.2709 20.038 23.4592 20.8498C22.6474 21.6615 21.5464 22.1176 20.3985 22.1176Z" fill="#8DD3BB"/>
<rect opacity="0.2" width="40" height="40" rx="8" fill="#8DD3BB"/>
</svg>
