<svg width="24" height="24" viewBox="0 0 24 24" fill="none" xmlns="http://www.w3.org/2000/svg">
<path d="M13.5173 15.9432C13.4127 15.845 13.2804 15.7716 13.1437 15.7104C12.846 15.5774 12.5205 15.4967 12.1973 15.4238V17.5707C12.7219 17.5199 13.3242 17.3567 13.5997 16.9369C13.7312 16.7363 13.7574 16.4899 13.7038 16.2667C13.6747 16.1457 13.6147 16.0347 13.5173 15.9432Z" fill="white"/>
<path d="M13.5967 16.9413C13.5977 16.9396 13.5983 16.9384 13.5994 16.9365C13.5985 16.9381 13.5976 16.9397 13.5967 16.9413Z" fill="white"/>
<path d="M9.7356 12.5108C9.6454 12.6237 9.5888 12.752 9.57319 12.8883C9.55757 13.0249 9.56634 13.1769 9.62688 13.3055C9.68453 13.428 9.8053 13.5185 9.92996 13.5913C10.0698 13.6729 10.2237 13.7366 10.3804 13.7906C10.5118 13.8359 10.6596 13.8793 10.819 13.9212V11.9785C10.4164 12.0522 9.97647 12.2094 9.7356 12.5108Z" fill="white"/>
<path d="M13.61 16.9209C13.6067 16.9268 13.6031 16.9329 13.5996 16.9393C13.6037 16.9318 13.6069 16.9263 13.61 16.9209Z" fill="white"/>
<path d="M13.623 16.9006C13.6239 16.8991 13.624 16.8989 13.623 16.9006V16.9006Z" fill="white"/>
<path d="M13.0792 5.22202C15.2093 3.68831 16.6325 0.233111 15.7566 0.0819889C14.5928 -0.118887 12.0656 0.761927 10.8441 0.917115C9.11155 1.09642 7.22459 -0.69322 6.16542 0.304324C5.30423 1.11539 6.78283 4.06499 9.09613 5.34998C2.1945 8.25745 -7.50621 22.8532 9.41719 23.9122C32.8336 25.3777 21.1082 8.05528 13.0792 5.22202ZM15.0903 16.7329C15.0182 17.3019 14.6664 17.8165 14.1405 18.1659C13.5852 18.5347 12.8888 18.7063 12.1968 18.7544V19.3831C12.1968 19.5513 12.1111 19.714 11.9641 19.8254C11.7622 19.9785 11.4654 20.0163 11.2203 19.9195C10.9783 19.8241 10.8194 19.6113 10.8194 19.3831V18.6959C10.7007 18.6766 10.5829 18.6536 10.4665 18.6262C9.81975 18.4739 9.21987 18.177 8.78166 17.7378C8.56338 17.5188 8.38543 17.2704 8.26235 17.0022C8.2302 16.9321 8.20154 16.8608 8.17644 16.7886C8.15371 16.7232 8.13025 16.6568 8.12215 16.5887C8.10851 16.4745 8.13493 16.3579 8.19706 16.2562C8.32475 16.0468 8.59382 15.9204 8.86857 15.9414C9.13896 15.9619 9.37595 16.1228 9.46107 16.3437C9.4873 16.4117 9.50508 16.4815 9.53454 16.5488C9.56372 16.6157 9.59897 16.6807 9.64041 16.7426C9.72224 16.8644 9.82476 16.9768 9.94283 17.0743C10.1862 17.2753 10.4962 17.406 10.8194 17.4837V15.1478C10.1875 15.0076 9.5352 14.8265 9.01338 14.4787C8.75979 14.3096 8.54461 14.0996 8.40368 13.8509C8.25497 13.5885 8.19337 13.2961 8.19087 13.0057C8.1883 12.7109 8.25366 12.4186 8.39715 12.15C8.53156 11.8985 8.72507 11.6726 8.96232 11.4854C9.46964 11.0852 10.1435 10.8619 10.8194 10.7799V10.7286V10.1273C10.8194 9.95911 10.9052 9.79635 11.0521 9.68498C11.2541 9.53189 11.5507 9.49405 11.7959 9.59084C12.0378 9.68634 12.1968 9.89902 12.1968 10.1273V10.7286V10.7764C12.2869 10.7861 12.3767 10.7977 12.466 10.8116C13.1298 10.9146 13.7789 11.1495 14.2643 11.5597C14.4943 11.7539 14.6825 11.9854 14.8149 12.2379C14.8518 12.3083 14.8842 12.3803 14.9122 12.4538C14.9383 12.5223 14.9645 12.5928 14.9769 12.6643C14.9968 12.7785 14.9765 12.8964 14.9196 13.0008C14.8028 13.2147 14.541 13.3509 14.2655 13.3408C13.9948 13.3307 13.7496 13.1797 13.6527 12.9628C13.6238 12.8983 13.6094 12.83 13.58 12.7657C13.5503 12.7006 13.5118 12.6385 13.4674 12.5798C13.3813 12.4657 13.2696 12.3679 13.1421 12.2873C12.866 12.1126 12.5312 12.0216 12.1966 11.9707V14.206C12.5943 14.2876 12.9922 14.3766 13.3732 14.5054C13.9489 14.7 14.4945 14.9984 14.8088 15.4689C14.76 15.3956 14.7126 15.3242 14.8104 15.4713C14.9065 15.6159 14.8607 15.547 14.8124 15.4746C15.0625 15.8523 15.1446 16.3039 15.0903 16.7329Z" fill="white"/>
<path d="M13.5894 16.9512C13.5854 16.9584 13.5819 16.9647 13.5791 16.9695C13.5815 16.9653 13.585 16.9591 13.5894 16.9512Z" fill="white"/>
</svg>
