<svg width="26" height="28" viewBox="0 0 26 28" fill="none" xmlns="http://www.w3.org/2000/svg">
<path d="M11.6672 28C13.7802 28 15.5477 26.4937 15.9536 24.5H7.38086C7.78696 26.4937 9.55447 28 11.6672 28Z" fill="#007BFF"/>
<path d="M19.848 13.9985C19.8433 13.9985 19.8386 13.9996 19.8339 13.9996C15.3318 13.9996 11.6673 10.3362 11.6673 5.83301C11.6673 4.59506 11.9521 3.42484 12.4479 2.37253C12.1911 2.34818 11.9309 2.33301 11.6673 2.33301C7.1571 2.33301 3.50073 5.98917 3.50073 10.4996V13.7522C3.50073 16.0611 2.48922 18.2404 0.714655 19.7407C0.123132 20.2459 -0.13941 21.0509 0.072931 21.8362C0.320307 22.7496 1.22329 23.333 2.17071 23.333H21.1582C22.1522 23.333 23.0891 22.6889 23.2908 21.7148C23.4471 20.9612 23.1788 20.2086 22.5944 19.7174C20.898 18.2953 19.9168 16.2057 19.848 13.9985Z" fill="#007BFF"/>
<path d="M25.6671 5.8334C25.6671 9.05505 23.0555 11.6666 19.8337 11.6666C16.612 11.6666 14.0005 9.05505 14.0005 5.8334C14.0005 2.61176 16.612 0 19.8337 0C23.0555 0 25.6671 2.61176 25.6671 5.8334Z" fill="#28A745"/>
</svg>
