<svg width="32" height="32" viewBox="0 0 32 32" fill="none" xmlns="http://www.w3.org/2000/svg">
<mask id="mask0_1_35526" style="mask-type:luminance" maskUnits="userSpaceOnUse" x="0" y="0" width="32" height="32">
<rect width="32" height="32" fill="white"/>
</mask>
<g mask="url(#mask0_1_35526)">
<path fill-rule="evenodd" clip-rule="evenodd" d="M16.0002 21.334C13.8784 21.334 11.8436 22.1768 10.3433 23.6771C8.84302 25.1774 8.00016 27.2123 8.00016 29.334H5.3335C5.3335 26.505 6.4573 23.7919 8.45769 21.7915C10.4581 19.7911 13.1712 18.6673 16.0002 18.6673V21.334ZM8.00016 9.33398C8.00016 4.91398 11.5802 1.33398 16.0002 1.33398C20.4202 1.33398 24.0002 4.91398 24.0002 9.33398C24.0002 13.754 20.4202 17.334 16.0002 17.334C11.5802 17.334 8.00016 13.754 8.00016 9.33398ZM21.3335 9.33398C21.3335 6.38732 18.9468 4.00065 16.0002 4.00065C13.0535 4.00065 10.6668 6.38732 10.6668 9.33398C10.6668 12.2807 13.0535 14.6673 16.0002 14.6673C18.9468 14.6673 21.3335 12.2807 21.3335 9.33398ZM20.0815 30.7273L20.8295 26.3647L17.6602 23.274L22.0415 22.6367L24.0002 18.6673L25.9602 22.6367L30.3402 23.274L27.1708 26.3647L27.9175 30.7273L24.0002 28.6673L20.0815 30.7273Z" fill="white"/>
</g>
</svg>
