<svg width="32" height="38" viewBox="0 0 32 38" fill="none" xmlns="http://www.w3.org/2000/svg">
<path fill-rule="evenodd" clip-rule="evenodd" d="M14.0042 25.6836C11.3521 25.6836 8.80853 26.7372 6.93316 28.6125C5.0578 30.4879 4.00423 33.0314 4.00423 35.6836H0.670898C0.670898 32.1474 2.07566 28.756 4.57614 26.2555C7.07663 23.755 10.468 22.3503 14.0042 22.3503V25.6836ZM4.00423 10.6836C4.00423 5.15859 8.47923 0.683594 14.0042 0.683594C19.5292 0.683594 24.0042 5.15859 24.0042 10.6836C24.0042 16.2086 19.5292 20.6836 14.0042 20.6836C8.47923 20.6836 4.00423 16.2086 4.00423 10.6836ZM20.6709 10.6836C20.6709 7.00026 17.6876 4.01693 14.0042 4.01693C10.3209 4.01693 7.33756 7.00026 7.33756 10.6836C7.33756 14.3669 10.3209 17.3503 14.0042 17.3503C17.6876 17.3503 20.6709 14.3669 20.6709 10.6836ZM19.1059 37.4253L20.0409 31.9719L16.0792 28.1086L21.5559 27.3119L24.0042 22.3503L26.4542 27.3119L31.9292 28.1086L27.9676 31.9719L28.9009 37.4253L24.0042 34.8503L19.1059 37.4253Z" fill="#025F80"/>
</svg>
