<svg width="18" height="16" viewBox="0 0 18 16" fill="none" xmlns="http://www.w3.org/2000/svg">
<path d="M10.9619 1.17611C10.536 0.750378 9.84549 0.750524 9.41976 1.17611C8.99374 1.60213 8.99374 2.29248 9.4199 2.7185L13.6103 6.90876L1.47572 6.90993C0.873481 6.91007 0.385375 7.39818 0.385375 8.00071C0.385522 8.60295 0.873627 9.09091 1.47587 9.09091L13.6109 9.08975L9.41947 13.2809C8.99359 13.7068 8.99359 14.3974 9.41947 14.8231C9.63248 15.036 9.9115 15.1426 10.1907 15.1426C10.4697 15.1426 10.7487 15.036 10.9617 14.8233L17.0145 8.7706C17.2191 8.56617 17.334 8.28889 17.334 7.99955C17.3338 7.7102 17.219 7.43307 17.0144 7.22821L10.9619 1.17611Z" fill="white"/>
</svg>
