<svg width="28" height="28" viewBox="0 0 28 28" fill="none" xmlns="http://www.w3.org/2000/svg">
<g clip-path="url(#clip0_1_36070)">
<path d="M13.9996 8.66602C11.0578 8.66602 8.66455 11.0592 8.66455 14.0008C8.66455 16.9426 11.0578 19.3358 13.9996 19.3358C16.9411 19.3358 19.3344 16.9426 19.3344 14.0008C19.3344 11.0592 16.9411 8.66602 13.9996 8.66602ZM17.1669 12.9961L13.345 16.8181C13.1846 16.9785 12.9742 17.0588 12.764 17.0588C12.5538 17.0588 12.3436 16.9787 12.1831 16.8181L10.7226 15.3575C10.4017 15.0369 10.4017 14.5167 10.7226 14.1958C11.0432 13.875 11.5634 13.875 11.8843 14.1958L12.764 15.0755L16.0053 11.8345C16.3259 11.5136 16.8461 11.5136 17.1669 11.8345C17.4878 12.1551 17.4878 12.6753 17.1669 12.9961Z" fill="#6E8DE9"/>
<path d="M25.8938 7.59711L25.893 7.57532C25.8808 7.30637 25.8727 7.02182 25.8678 6.70524C25.8449 5.16139 24.6176 3.88435 23.0736 3.79805C19.8543 3.61839 17.3639 2.56865 15.236 0.494589L15.2178 0.477286C14.5238 -0.159095 13.4768 -0.159095 12.7825 0.477286L12.7644 0.494589C10.6365 2.56865 8.14606 3.61839 4.92677 3.79826C3.38292 3.88435 2.15545 5.16139 2.13259 6.70545C2.12789 7.0199 2.11956 7.30445 2.10738 7.57532L2.1061 7.62595C2.04351 10.9087 1.96575 14.9942 3.33251 18.7025C4.08403 20.7417 5.22221 22.5144 6.71522 23.9715C8.41565 25.6309 10.6429 26.9483 13.335 27.887C13.4225 27.9175 13.5135 27.9423 13.6063 27.9609C13.737 27.9869 13.8686 28 14.0002 28C14.1318 28 14.2636 27.9869 14.3941 27.9609C14.4868 27.9423 14.5784 27.9173 14.6665 27.8865C17.3553 26.9462 19.5802 25.6281 21.2791 23.9689C22.7715 22.5114 23.9097 20.7383 24.6619 18.6986C26.0337 14.9793 25.9562 10.886 25.8938 7.59711ZM13.9997 20.9784C10.152 20.9784 7.02177 17.8482 7.02177 14.0004C7.02177 10.1527 10.152 7.02246 13.9997 7.02246C17.8473 7.02246 20.9777 10.1527 20.9777 14.0004C20.9777 17.8482 17.8473 20.9784 13.9997 20.9784Z" fill="#6E8DE9"/>
</g>
<defs>
<clipPath id="clip0_1_36070">
<rect width="28" height="28" fill="white"/>
</clipPath>
</defs>
</svg>
