<svg width="24" height="24" viewBox="0 0 24 24" fill="none" xmlns="http://www.w3.org/2000/svg">
<g opacity="0.4">
<path d="M12.0001 0.799979C12.3872 0.799981 12.7741 0.819749 13.1591 0.859206L13.241 0.063426C12.1378 -0.0497638 11.0244 -0.0113215 9.93164 0.177681L10.0686 0.965844C10.7065 0.855379 11.3527 0.799886 12.0001 0.799979Z" fill="black"/>
<path d="M5.43465 2.92508L4.96518 2.27734C1.84442 4.53244 -0.00280772 8.14962 4.77844e-05 11.9999C-0.00518799 13.8461 0.419912 15.668 1.24162 17.3212L1.9584 16.9661C1.19167 15.4232 0.795054 13.7228 0.800027 11.9999C0.797134 8.40601 2.52147 5.02968 5.43465 2.92508Z" fill="black"/>
<path d="M12.3857 23.1926L12.4128 23.9921C13.5381 23.9546 14.6526 23.7586 15.7232 23.4099L15.4751 22.6494C14.476 22.9748 13.436 23.1576 12.3857 23.1926H12.3857Z" fill="black"/>
<path fill-rule="evenodd" clip-rule="evenodd" d="M16.5641 8.91793L23.7732 12.3857C23.9723 12.4815 24.0561 12.7205 23.9603 12.9195L18.9322 23.3728C18.8862 23.4684 18.8042 23.5419 18.704 23.577C18.6039 23.6121 18.4939 23.6059 18.3983 23.5598L12.75 20.8429C12.5979 21.5058 12.1205 22.0465 11.4817 22.2797C11.7172 22.7695 11.594 23.3565 11.1815 23.7103C10.769 24.0642 10.1701 24.0966 9.72183 23.7893C9.27354 23.482 9.08777 22.9118 9.26902 22.3994H5.93149C6.11293 22.9119 5.92721 23.4823 5.47883 23.7897C5.03045 24.0971 4.43143 24.0647 4.01884 23.7107C3.60625 23.3567 3.48316 22.7696 3.71884 22.2797C2.9281 21.992 2.40139 21.2409 2.40039 20.3995V9.99974C2.40164 8.89572 3.29632 8.00105 4.40034 7.99979H6.0003V1.59996C6.0003 0.716326 6.71662 0 7.60026 0C8.48389 0 9.20022 0.716326 9.20022 1.59996V7.99979H10.8002C11.9042 8.00105 12.7989 8.89572 12.8001 9.99974V13.9748L14.9625 9.4792C15.2504 8.88259 15.9668 8.63151 16.5641 8.91793ZM4.40034 22.7994C4.40034 23.0203 4.57942 23.1994 4.80033 23.1994C5.02113 23.1992 5.20007 23.0202 5.20032 22.7994C5.20032 22.5785 5.02124 22.3994 4.80033 22.3994C4.57942 22.3994 4.40034 22.5785 4.40034 22.7994ZM5.60031 20.7995H4.80033V11.5997H5.60031V20.7995ZM7.20027 11.5997V20.7995H8.00025V11.5997H7.20027ZM6.80028 7.99979V1.59996C6.80028 1.15814 7.15844 0.799979 7.60026 0.799979C8.04207 0.799979 8.40024 1.15814 8.40024 1.59996V7.99979H6.80028ZM10.4002 11.5997H9.60021V20.7995H10.4002V11.5997ZM10.4002 23.1994C10.1793 23.1994 10.0002 23.0203 10.0002 22.7994C10.0002 22.5785 10.1793 22.3994 10.4002 22.3994C10.6211 22.3994 10.8002 22.5785 10.8002 22.7994C10.7999 23.0202 10.621 23.1992 10.4002 23.1994ZM11.5359 19.3713L18.3846 22.6656L22.3725 14.375L15.5238 11.0807C15.4009 11.0217 15.2891 10.9421 15.1931 10.8453L11.3489 18.8374C11.2531 19.0365 11.3369 19.2755 11.5359 19.3713Z" fill="black"/>
<path fill-rule="evenodd" clip-rule="evenodd" d="M14.6836 14.6716C14.0133 16.0651 14.5996 17.7382 15.9931 18.4085C17.3867 19.0788 19.0597 18.4925 19.73 17.0989C20.4003 15.7054 19.814 14.0323 18.4205 13.362C17.7521 13.0351 16.9805 12.9895 16.2783 13.2356C15.5761 13.4817 15.0017 13.9989 14.6836 14.6716ZM16.6596 17.1604L16.5542 17.242L16.5522 17.1087C16.5474 16.7628 16.6009 16.4185 16.7103 16.0903L17.3565 16.4011C17.1684 16.6915 16.9328 16.9482 16.6596 17.1604ZM19.1462 16.3743C19.312 15.7108 19.1284 15.0085 18.6592 14.5109L18.6613 14.6496C18.668 15.1198 18.5893 15.5873 18.4291 16.0294L19.1462 16.3743ZM18.7994 17.0952C18.3845 17.6388 17.7213 17.9338 17.0397 17.8778L17.1493 17.793C17.5208 17.5047 17.8369 17.1514 18.0823 16.7502L18.7994 17.0952ZM17.8594 14.5285L17.754 14.6101C17.4808 14.8224 17.2452 15.079 17.0571 15.3694L17.7033 15.6802C17.8127 15.352 17.8662 15.0077 17.8615 14.6618L17.8594 14.5285ZM17.21 13.8854C17.2644 13.8854 17.319 13.8884 17.3736 13.8929L17.2643 13.9775C16.8928 14.2658 16.5767 14.6191 16.3313 15.0203L15.615 14.6757C15.9943 14.178 16.5842 13.8857 17.21 13.8854ZM15.7523 17.1209C15.7456 16.6508 15.8243 16.1833 15.9845 15.7412L15.2671 15.3961C15.1004 16.0601 15.2841 16.7633 15.7544 17.2609L15.7523 17.1209Z" fill="black"/>
<path d="M13.3246 19.3435L13.6714 18.6226L17.2759 20.3565L16.9292 21.0773L13.3246 19.3435Z" fill="black"/>
<path d="M17.2826 5.5166C16.7947 5.0299 16.0049 5.0299 15.517 5.5166C15.3417 5.69148 15.058 5.69148 14.8827 5.5166L14.7827 5.4166C13.6869 4.32337 11.913 4.32337 10.8171 5.4166C10.6009 5.63403 10.3067 5.75591 10 5.75507V6.55505C10.5189 6.55647 11.0169 6.35024 11.3828 5.98231C12.166 5.20089 13.4339 5.20089 14.2171 5.98231L14.3171 6.08231C14.805 6.56902 15.5948 6.56902 16.0827 6.08231C16.2579 5.90736 16.5417 5.90736 16.717 6.08231L17.4542 6.81955C18.888 8.26124 20.8132 9.10834 22.8448 9.19135C23.0168 9.85816 23.1268 10.5394 23.1734 11.2265L23.9716 11.1721C23.8658 9.58693 23.4433 8.03903 22.7291 6.61989L22.0142 6.97897C22.2409 7.43048 22.4367 7.89687 22.6001 8.37492C20.869 8.23759 19.2443 7.48518 18.0199 6.25384L17.2826 5.5166Z" fill="black"/>
<path d="M13.791 1.94127L20.4534 6.0127C20.926 6.30305 21.5363 6.23045 21.9276 5.83731L23.4822 4.28276C23.6384 4.12654 23.6384 3.87327 23.4822 3.71705L22.6822 2.91707C22.5474 2.78229 22.3362 2.76138 22.1775 2.86712L21.1994 3.51916L19.3732 2.30166L20.3194 1.03997C20.4389 0.880726 20.423 0.657889 20.2823 0.517135L19.8823 0.117145C19.7605 -0.00458439 19.5746 -0.034754 19.4206 0.0422472L17.217 1.14402L16.4765 0.699697C15.6898 0.226479 14.6818 0.350573 14.0334 1.00047L13.7168 1.31711C13.6301 1.40381 13.5879 1.52547 13.6024 1.64721C13.6169 1.76896 13.6864 1.87734 13.791 1.94127H13.791Z" fill="black"/>
</g>
</svg>
