<svg width="30" height="30" viewBox="0 0 30 30" fill="none" xmlns="http://www.w3.org/2000/svg">
<path d="M29.7647 15C29.7647 23.2843 23.2843 30 15 30C12.5244 30 10.1889 29.4003 8.13076 28.3382C5.95212 27.2139 4.31971 25.2775 2.92571 23.2799C1.87971 21.781 0.865176 20.3762 0.421588 18.5461C0.146059 17.4092 0 16.2216 0 15C0 6.71571 6.71571 0 15 0C21.4262 0.0419412 29.7647 6.71571 29.7647 15Z" fill="url(#paint0_linear_1_2689)"/>
<path d="M14.9991 0C14.6029 0 14.2104 0.0156471 13.822 0.0457647C19.7682 0.507353 24.7412 4.43618 26.7231 9.81259C26.721 9.81641 26.7188 9.81965 26.7167 9.82359C25.1829 12.7701 22.5714 16.1585 19.3645 19.3654C16.1575 22.5724 12.7685 25.1838 9.82272 26.7176C8.72348 27.2897 7.85607 27.6228 7.18701 27.8071C8.46525 28.5885 9.86966 29.1833 11.3624 29.5551C14.5811 27.8705 18.231 25.0647 21.6474 21.6482C23.9841 19.3116 26.0347 16.8658 27.6367 14.5234C27.6416 14.6817 27.645 14.8404 27.645 14.9999C27.645 22.8881 21.5561 29.3538 13.8221 29.9542C14.2104 29.9844 14.6029 30 14.9991 30C18.8496 30 22.3612 28.5491 25.0172 26.1643C25.9918 25.2891 26.7657 24.2042 27.4844 23.1029C28.2998 21.8534 29.0196 20.5587 29.4352 19.0883C29.8025 17.7886 29.9991 16.4173 29.9991 15C29.9991 11.2367 28.6132 7.79712 26.324 5.16371C25.1208 3.77965 23.4917 2.79471 21.8594 1.92612C19.7609 0.809294 17.5421 0 14.9991 0Z" fill="url(#paint1_linear_1_2689)"/>
<path d="M9.25881 15.2147L8.27328 14.2292C6.45204 12.408 3.49928 12.408 1.67804 14.2292C0.527983 15.3793 0.050924 17.0477 0.443218 18.6261C1.39634 22.4611 3.82516 25.7129 7.09222 27.7437C8.79057 28.7995 10.9907 28.5544 12.4048 27.1404C13.1373 26.4078 14.131 25.9962 15.167 25.9962C16.4511 25.9962 17.492 24.9553 17.492 23.6712C17.492 21.59 15.8049 19.9027 13.7236 19.9027H12.8093C11.2926 19.9027 10.0631 18.6732 10.0631 17.1566C10.0631 16.4282 9.77381 15.7297 9.25881 15.2147Z" fill="url(#paint2_linear_1_2689)"/>
<path d="M12.4044 27.1417C13.137 26.4091 14.1307 25.9975 15.1667 25.9975C16.4508 25.9975 17.4917 24.9566 17.4917 23.6725C17.4917 22.9356 17.2794 22.2487 16.9139 21.668C14.4768 23.8185 12.0262 25.5681 9.82333 26.7151C8.72586 27.2863 7.85956 27.6192 7.19092 27.8037C8.87509 28.79 11.0176 28.5285 12.4044 27.1417Z" fill="url(#paint3_linear_1_2689)"/>
<path d="M24.4541 13.7059C27.6041 13.7059 29.5946 10.3027 28.0317 7.56777C25.4481 3.04694 20.5804 0 15.0004 0C14.9534 0 14.9064 0.000235294 14.8595 0.000647059C13.1466 0.0165294 11.7651 1.40688 11.7651 3.11988C11.7651 3.94706 12.0937 4.74035 12.6786 5.32524L15.4635 8.11018C16.2236 8.87024 17.4559 8.87024 18.216 8.11018C18.976 7.35012 20.2083 7.35012 20.9684 8.11018C22.0921 9.23388 22.7234 10.758 22.7234 12.3472C22.7234 13.0975 23.3317 13.7058 24.082 13.7058H24.4541V13.7059Z" fill="url(#paint4_linear_1_2689)"/>
<path d="M14.1899 0.0794118C19.9728 0.671118 24.7825 4.54741 26.7233 9.81265C26.7212 9.81647 26.719 9.81971 26.7169 9.82365C26.0756 11.0556 25.2453 12.365 24.2624 13.7059H24.4529C27.603 13.7059 29.5935 10.3027 28.0305 7.56777C25.4471 3.04694 20.5793 0 14.9994 0C14.9423 0 14.8855 0.00105882 14.8286 0.00170588C14.6094 0.00576471 14.3959 0.0325294 14.1899 0.0794118Z" fill="url(#paint5_linear_1_2689)"/>
<ellipse cx="19.3279" cy="13.3679" rx="2.29371" ry="2.29371" fill="url(#paint6_linear_1_2689)"/>
<ellipse cx="4.41201" cy="10.0058" rx="1.89053" ry="1.89053" fill="url(#paint7_linear_1_2689)"/>
<path d="M29.4357 19.0859H27.831C26.0747 19.0859 24.3903 19.7836 23.1485 21.0255L21.5449 22.6291C20.9096 23.2643 21.3596 24.3506 22.2581 24.3506C22.8302 24.3506 23.2939 24.8144 23.2939 25.3865C23.2939 26.2798 24.3526 26.7582 25.0174 26.1613C27.0982 24.2932 28.6539 21.8522 29.4357 19.0859Z" fill="url(#paint8_linear_1_2689)"/>
<path d="M27.8312 19.0859C27.575 19.0859 27.3203 19.1012 27.0683 19.1305C26.366 21.5857 25.054 23.7831 23.3062 25.5489C23.4249 26.3354 24.3943 26.7209 25.0176 26.1614C27.0983 24.2933 28.654 21.8522 29.4359 19.086H27.8312V19.0859Z" fill="url(#paint9_linear_1_2689)"/>
<path d="M28.5725 1.42782C27.5444 0.399758 25.4832 -0.367183 21.4319 1.44576C22.6695 2.03335 23.8138 2.78593 24.8361 3.67552C25.179 3.60452 25.4552 3.57793 25.6719 3.57793C25.8541 3.57793 25.994 3.59658 26.0952 3.62241C26.1971 3.64823 26.2602 3.68123 26.2896 3.71064C26.3828 3.80458 26.5156 4.2437 26.3248 5.16411C26.177 5.87723 25.8348 6.88023 25.1295 8.23541C23.5956 11.1819 20.9842 14.5703 17.7773 17.7772C14.5705 20.9841 11.1813 23.5956 8.23552 25.1295C6.88029 25.8347 5.87735 26.1769 5.16423 26.3247C4.24376 26.5155 3.8047 26.3828 3.7107 26.2895C3.61741 26.1955 3.4847 25.7565 3.67552 24.8361C2.78593 23.8137 2.03335 22.6694 1.44576 21.4318C-0.367183 25.4832 0.399758 27.5436 1.42782 28.5724C2.00676 29.1506 2.91217 29.6471 4.31546 29.6471C5.40523 29.6471 6.79635 29.3472 8.56764 28.5545C8.93711 28.3895 9.32311 28.2029 9.72629 27.9928C12.9569 26.3111 16.6265 23.4938 20.0601 20.0602C23.4937 16.6265 26.3111 12.9569 27.9927 9.72635C28.2022 9.32317 28.3895 8.93788 28.5545 8.56841C29.3472 6.79705 29.6471 5.40523 29.6471 4.31476C29.6472 2.91217 29.1515 2.00676 28.5725 1.42782Z" fill="url(#paint10_linear_1_2689)"/>
<defs>
<linearGradient id="paint0_linear_1_2689" x1="-0.700353" y1="30.1806" x2="29.4227" y2="30.1806" gradientUnits="userSpaceOnUse">
<stop stop-color="#01D0FB"/>
<stop offset="0.6075" stop-color="#26A6FE"/>
<stop offset="1" stop-color="#0182FC"/>
</linearGradient>
<linearGradient id="paint1_linear_1_2689" x1="6.65025" y1="30.1806" x2="29.7369" y2="30.1806" gradientUnits="userSpaceOnUse">
<stop stop-color="#01BFFA"/>
<stop offset="0.2539" stop-color="#1F9EFC"/>
<stop offset="0.5724" stop-color="#407AFD"/>
<stop offset="0.8326" stop-color="#5464FF"/>
<stop offset="1" stop-color="#5B5CFF"/>
</linearGradient>
<linearGradient id="paint2_linear_1_2689" x1="-0.0962525" y1="28.489" x2="17.2946" y2="28.489" gradientUnits="userSpaceOnUse">
<stop stop-color="#B0E7C9"/>
<stop offset="0.593" stop-color="#46CC8D"/>
<stop offset="1" stop-color="#0AB69F"/>
</linearGradient>
<linearGradient id="paint3_linear_1_2689" x1="6.35262" y1="28.3684" x2="16.5683" y2="28.3684" gradientUnits="userSpaceOnUse">
<stop stop-color="#46CC8D"/>
<stop offset="0.5484" stop-color="#0AB69F"/>
<stop offset="1" stop-color="#01998D"/>
</linearGradient>
<linearGradient id="paint4_linear_1_2689" x1="10.6475" y1="13.9278" x2="28.0029" y2="13.9278" gradientUnits="userSpaceOnUse">
<stop stop-color="#B0E7C9"/>
<stop offset="0.593" stop-color="#46CC8D"/>
<stop offset="1" stop-color="#0AB69F"/>
</linearGradient>
<linearGradient id="paint5_linear_1_2689" x1="13.2336" y1="13.9279" x2="28.0845" y2="13.9279" gradientUnits="userSpaceOnUse">
<stop stop-color="#46CC8D"/>
<stop offset="0.5484" stop-color="#0AB69F"/>
<stop offset="1" stop-color="#01998D"/>
</linearGradient>
<linearGradient id="paint6_linear_1_2689" x1="17.7672" y1="15.9471" x2="22.9256" y2="15.9471" gradientUnits="userSpaceOnUse">
<stop stop-color="#46CC8D"/>
<stop offset="0.5484" stop-color="#0AB69F"/>
<stop offset="1" stop-color="#01998D"/>
</linearGradient>
<linearGradient id="paint7_linear_1_2689" x1="2.00025" y1="12.5524" x2="7.09348" y2="12.5524" gradientUnits="userSpaceOnUse">
<stop stop-color="#B0E7C9"/>
<stop offset="0.593" stop-color="#46CC8D"/>
<stop offset="1" stop-color="#0AB69F"/>
</linearGradient>
<linearGradient id="paint8_linear_1_2689" x1="19.941" y1="26.3992" x2="28.0691" y2="26.3992" gradientUnits="userSpaceOnUse">
<stop stop-color="#B0E7C9"/>
<stop offset="0.593" stop-color="#46CC8D"/>
<stop offset="1" stop-color="#0AB69F"/>
</linearGradient>
<linearGradient id="paint9_linear_1_2689" x1="22.3281" y1="26.3992" x2="28.4129" y2="26.3992" gradientUnits="userSpaceOnUse">
<stop stop-color="#46CC8D"/>
<stop offset="0.5484" stop-color="#0AB69F"/>
<stop offset="1" stop-color="#01998D"/>
</linearGradient>
<linearGradient id="paint10_linear_1_2689" x1="-0.35283" y1="29.5668" x2="28.7802" y2="29.5668" gradientUnits="userSpaceOnUse">
<stop stop-color="#FFF9DF"/>
<stop offset="0.593" stop-color="#FFE177"/>
<stop offset="1" stop-color="#FEB137"/>
</linearGradient>
</defs>
</svg>
